<svg width="76" height="76" viewBox="0 0 76 76" fill="none" xmlns="http://www.w3.org/2000/svg">
<g filter="url(#filter0_di_1_214)">
<path d="M49.9192 59.8536C50.2542 58.961 50.9603 58.2548 51.853 57.9199L56.5784 56.1478C58.3372 55.4879 59.7595 54.1151 60.4772 52.381C61.1949 50.6436 61.1636 48.6686 60.3848 46.9593L58.2993 42.3659C57.9033 41.4947 57.9017 40.4998 58.2993 39.6302L60.3848 35.0368C61.1636 33.3275 61.1949 31.3525 60.4772 29.6151C59.7628 27.8843 58.3372 26.5082 56.5784 25.8483L51.853 24.0762C50.957 23.7413 50.2509 23.0351 49.9192 22.1425L48.1455 17.4154C47.4889 15.6566 46.1128 14.231 44.3787 13.5166C42.643 12.7972 40.6663 12.8302 38.957 13.609L34.3636 15.6945C33.494 16.0922 32.4975 16.0922 31.628 15.6945L27.0345 13.609C25.3252 12.8302 23.3485 12.7972 21.6128 13.5166C19.8787 14.2343 18.506 15.6566 17.846 17.4154L16.0739 22.1408C15.739 23.0335 15.0328 23.7396 14.1402 24.0746L9.41476 25.8466C7.65593 26.5066 6.23367 27.8793 5.51595 29.6134C4.79822 31.3508 4.82957 33.3258 5.60835 35.0352L7.69387 39.6286C8.08986 40.4998 8.09151 41.4947 7.69387 42.3642L5.60834 46.9576C4.82957 48.667 4.79822 50.642 5.51595 52.3794C5.85914 53.2076 6.36402 53.9567 6.991 54.5837C7.67243 55.2651 8.4974 55.803 9.41476 56.1462L14.1402 57.9182C15.0361 58.2532 15.7423 58.9593 16.0739 59.852L17.846 64.5774C18.5027 66.3362 19.8804 67.7601 21.6128 68.4762C23.3502 69.1939 25.3252 69.1626 27.0345 68.3838L31.628 66.2983C32.4991 65.9023 33.494 65.9006 34.3636 66.2983L38.957 68.3838C40.6663 69.1626 42.6413 69.1939 44.3787 68.4762C46.1128 67.7585 47.4856 66.3362 48.1455 64.5774L49.9192 59.8536Z" fill="url(#paint0_linear_1_214)"/>
</g>
<g filter="url(#filter1_b_1_214)">
<path d="M49.9192 59.8536C50.2542 58.961 50.9603 58.2548 51.853 57.9199L56.5784 56.1478C58.3372 55.4879 59.7595 54.1151 60.4772 52.381C61.1949 50.6436 61.1636 48.6686 60.3848 46.9593L58.2993 42.3659C57.9033 41.4947 57.9017 40.4998 58.2993 39.6302L60.3848 35.0368C61.1636 33.3275 61.1949 31.3525 60.4772 29.6151C59.7628 27.8843 58.3372 26.5082 56.5784 25.8483L51.853 24.0762C50.957 23.7413 50.2509 23.0351 49.9192 22.1425L48.1455 17.4154C47.4889 15.6566 46.1128 14.231 44.3787 13.5166C42.643 12.7972 40.6663 12.8302 38.957 13.609L34.3636 15.6945C33.494 16.0922 32.4975 16.0922 31.628 15.6945L27.0345 13.609C25.3252 12.8302 23.3485 12.7972 21.6128 13.5166C19.8787 14.2343 18.506 15.6566 17.846 17.4154L16.0739 22.1408C15.739 23.0335 15.0328 23.7396 14.1402 24.0746L9.41476 25.8466C7.65593 26.5066 6.23367 27.8793 5.51595 29.6134C4.79822 31.3508 4.82957 33.3258 5.60835 35.0352L7.69387 39.6286C8.08986 40.4998 8.09151 41.4947 7.69387 42.3642L5.60834 46.9576C4.82957 48.667 4.79822 50.642 5.51595 52.3794C5.85914 53.2076 6.36402 53.9567 6.991 54.5837C7.67243 55.2651 8.4974 55.803 9.41476 56.1462L14.1402 57.9182C15.0361 58.2532 15.7423 58.9593 16.0739 59.852L17.846 64.5774C18.5027 66.3362 19.8804 67.7601 21.6128 68.4762C23.3502 69.1939 25.3252 69.1626 27.0345 68.3838L31.628 66.2983C32.4991 65.9023 33.494 65.9006 34.3636 66.2983L38.957 68.3838C40.6663 69.1626 42.6413 69.1939 44.3787 68.4762C46.1128 67.7585 47.4856 66.3362 48.1455 64.5774L49.9192 59.8536Z" fill="url(#paint1_linear_1_214)"/>
</g>
<g filter="url(#filter2_b_1_214)">
<path d="M31.4167 39.4173H30.2486L30.2486 37.0843L34.3305 37.0843C35.2974 37.0843 36.0811 36.3006 36.0811 35.3337C36.0811 34.3668 35.2974 33.5831 34.3305 33.5831L28.4963 33.5831C27.5295 33.5831 26.7457 34.3668 26.7457 35.3337L26.7457 41.1679C26.7457 42.1348 27.5295 42.9185 28.4963 42.9185L31.4134 42.9185C32.0569 42.9185 32.5799 43.4415 32.5799 44.085C32.5799 44.7285 32.0569 45.2515 31.4134 45.2515L28.4963 45.2515C27.5295 45.2515 26.7457 46.0352 26.7457 47.0021C26.7441 47.4855 26.9404 47.9228 27.2572 48.2396C27.574 48.5563 28.0112 48.7527 28.4947 48.751H31.4118C32.6591 48.751 33.8306 48.266 34.7117 47.3849C35.5927 46.5038 36.0828 45.3307 36.0828 44.0833C36.0828 41.5127 33.9873 39.4173 31.4167 39.4173Z" fill="url(#paint2_linear_1_214)"/>
<path d="M30.1166 39.4173L30.1166 39.5493L30.2486 39.5493H31.4167C33.9144 39.5493 35.9508 41.5856 35.9508 44.0833C35.9508 45.2954 35.4748 46.435 34.6183 47.2915C33.762 48.1478 32.6242 48.619 31.4118 48.619L28.4947 48.619L28.4942 48.619C28.0476 48.6206 27.6437 48.4394 27.3506 48.1462C27.0574 47.8531 26.8762 47.4491 26.8777 47.0025V47.0021C26.8777 46.1081 27.6024 45.3835 28.4963 45.3835L31.4134 45.3835C32.1298 45.3835 32.7119 44.8014 32.7119 44.085C32.7119 43.3686 32.1298 42.7865 31.4134 42.7865L28.4963 42.7865C27.6024 42.7865 26.8777 42.0619 26.8777 41.1679L26.8777 35.3337C26.8777 34.4397 27.6024 33.7151 28.4963 33.7151L34.3305 33.7151C35.2245 33.7151 35.9491 34.4397 35.9491 35.3337C35.9491 36.2277 35.2245 36.9523 34.3305 36.9523L30.2486 36.9523L30.1166 36.9523L30.1166 37.0843L30.1166 39.4173Z" stroke="url(#paint3_linear_1_214)" stroke-opacity="0.5" stroke-width="0.263998"/>
</g>
<g filter="url(#filter3_b_1_214)">
<path d="M23.8336 45.2517L19.7516 45.2517L19.75 44.0852C19.75 43.4417 20.2747 42.917 20.9165 42.9187C22.1622 42.917 23.3353 42.4336 24.2164 41.5525C25.0975 40.6714 25.5842 39.4983 25.5842 38.251C25.5825 35.6754 23.4838 33.58 20.9165 33.5833L17.9994 33.5833C17.0325 33.5833 16.2488 34.367 16.2488 35.3339C16.2488 36.3007 17.0325 37.0845 17.9994 37.0845L20.9165 37.0845C21.5583 37.0828 22.083 37.6075 22.0847 38.2526C22.0847 38.5661 21.9609 38.8581 21.7415 39.0776C21.522 39.297 21.23 39.4175 20.9181 39.4191C19.6708 39.4191 18.4993 39.9042 17.6166 40.7869C16.7355 41.668 16.2505 42.8395 16.2505 44.0868L16.2505 47.0039C16.2505 47.4857 16.4451 47.9246 16.7619 48.2414C17.0787 48.5582 17.516 48.7545 17.9994 48.7529L23.8336 48.7529C24.8005 48.7529 25.5842 47.9691 25.5842 47.0023C25.5825 46.0337 24.8005 45.2517 23.8336 45.2517Z" fill="url(#paint4_linear_1_214)"/>
<path d="M19.6196 45.2519L19.6198 45.3837H19.7516L23.8336 45.3837C24.7274 45.3837 25.4506 46.1065 25.4522 47.0023C25.4522 47.8962 24.7275 48.6209 23.8336 48.6209L17.9994 48.6209L17.9989 48.6209C17.5523 48.6224 17.1484 48.4412 16.8553 48.148C16.5624 47.8552 16.3825 47.4496 16.3825 47.0039L16.3825 44.0868C16.3825 42.8744 16.8536 41.7366 17.7099 40.8803C18.5679 40.0223 19.7058 39.5511 20.9181 39.5511L20.9188 39.5511C21.2649 39.5493 21.5904 39.4153 21.8348 39.1709C22.0786 38.9272 22.2167 38.6017 22.2167 38.2526L22.2167 38.2523C22.2148 37.535 21.6316 36.9507 20.9164 36.9525C20.9163 36.9525 20.9162 36.9525 20.9162 36.9525L17.9994 36.9525C17.1054 36.9525 16.3808 36.2278 16.3808 35.3339C16.3808 34.4399 17.1054 33.7153 17.9994 33.7153L20.9165 33.7153L20.9167 33.7153C23.4109 33.7121 25.4506 35.7482 25.4522 38.251C25.4522 39.4633 24.9794 40.6028 24.123 41.4592C23.2669 42.3153 22.1274 42.785 20.9165 42.7867C20.2015 42.785 19.618 43.3691 19.618 44.0852V44.0854L19.6196 45.2519Z" stroke="url(#paint5_linear_1_214)" stroke-opacity="0.5" stroke-width="0.263998"/>
</g>
<g filter="url(#filter4_b_1_214)">
<path d="M38.1056 38.5627C38.6336 39.0907 39.3628 39.4207 40.1664 39.419C41.7734 39.419 43.0818 38.1106 43.0835 36.5019C43.0868 34.8949 41.7751 33.5832 40.1664 33.5848C38.5593 33.5848 37.2509 34.8932 37.2493 36.5019C37.2476 37.3054 37.576 38.0331 38.1056 38.5627Z" fill="url(#paint6_linear_1_214)"/>
<path d="M42.9515 36.5016L42.9515 36.5018C42.9499 38.0378 41.7004 39.287 40.1664 39.287L40.1661 39.287C39.3996 39.2886 38.7035 38.9739 38.1989 38.4694C37.6927 37.9632 37.3797 37.2687 37.3813 36.5022V36.5021C37.3828 34.9661 38.6323 33.7168 40.1664 33.7168L40.1665 33.7168C41.7023 33.7152 42.9546 34.9678 42.9515 36.5016Z" stroke="url(#paint7_linear_1_214)" stroke-opacity="0.5" stroke-width="0.263998"/>
</g>
<g filter="url(#filter5_b_1_214)">
<path d="M49.4259 33.9678C48.6718 33.3655 47.5713 33.486 46.9674 34.2417L37.6337 45.9084C37.0694 46.6113 37.1387 47.6145 37.7608 48.2365L37.9076 48.3668C38.6616 48.9691 39.7622 48.8486 40.366 48.0929L49.6998 36.4262C50.3053 35.6722 50.2129 34.5568 49.4259 33.9678Z" fill="url(#paint8_linear_1_214)"/>
<path d="M49.3435 34.0709L49.3434 34.071L49.3468 34.0735C50.0693 34.6142 50.1594 35.643 49.5968 36.3435L49.5967 36.3437L40.263 48.0105L40.2629 48.0105C39.7054 48.7082 38.6898 48.8203 37.9926 48.2658L37.8514 48.1404C37.2788 47.5651 37.216 46.6396 37.7366 45.9911L37.7368 45.9909L47.0705 34.3241L47.0706 34.3241C47.6288 33.6255 48.6462 33.514 49.3435 34.0709Z" stroke="url(#paint9_linear_1_214)" stroke-opacity="0.5" stroke-width="0.263998"/>
</g>
<g filter="url(#filter6_b_1_214)">
<path d="M47.1671 42.9185C45.5601 42.9185 44.2516 44.2269 44.25 45.8356C44.2483 46.6391 44.5783 47.3684 45.1063 47.8964C45.6343 48.4244 46.3636 48.7543 47.1671 48.7527C48.7741 48.7527 50.0825 47.4443 50.0842 45.8356C50.0858 44.2269 48.7741 42.9152 47.1671 42.9185Z" fill="url(#paint10_linear_1_214)"/>
<path d="M47.1671 43.0505L47.1674 43.0505C48.7012 43.0473 49.9538 44.2997 49.9522 45.8355C49.9506 47.3714 48.7012 48.6207 47.1671 48.6207L47.1668 48.6207C46.4003 48.6223 45.7042 48.3076 45.1996 47.803C44.6951 47.2985 44.3804 46.6023 44.382 45.8359L44.382 45.8357C44.3836 44.2998 45.633 43.0505 47.1671 43.0505Z" stroke="url(#paint11_linear_1_214)" stroke-opacity="0.5" stroke-width="0.263998"/>
</g>
<defs>
<filter id="filter0_di_1_214" x="-5" y="0" width="80.9932" height="78.9922" filterUnits="userSpaceOnUse" color-interpolation-filters="sRGB">
<feFlood flood-opacity="0" result="BackgroundImageFix"/>
<feColorMatrix in="SourceAlpha" type="matrix" values="0 0 0 0 0 0 0 0 0 0 0 0 0 0 0 0 0 0 127 0" result="hardAlpha"/>
<feOffset dx="5" dy="-3"/>
<feGaussianBlur stdDeviation="5"/>
<feColorMatrix type="matrix" values="0 0 0 0 1 0 0 0 0 0.173096 0 0 0 0 0.502901 0 0 0 0.4 0"/>
<feBlend mode="normal" in2="BackgroundImageFix" result="effect1_dropShadow_1_214"/>
<feBlend mode="normal" in="SourceGraphic" in2="effect1_dropShadow_1_214" result="shape"/>
<feColorMatrix in="SourceAlpha" type="matrix" values="0 0 0 0 0 0 0 0 0 0 0 0 0 0 0 0 0 0 127 0" result="hardAlpha"/>
<feOffset dx="-10" dy="10"/>
<feGaussianBlur stdDeviation="10"/>
<feComposite in2="hardAlpha" operator="arithmetic" k2="-1" k3="1"/>
<feColorMatrix type="matrix" values="0 0 0 0 1 0 0 0 0 1 0 0 0 0 1 0 0 0 0.24 0"/>
<feBlend mode="normal" in2="shape" result="effect2_innerShadow_1_214"/>
</filter>
<filter id="filter1_b_1_214" x="-8" y="0" width="81.9932" height="81.9922" filterUnits="userSpaceOnUse" color-interpolation-filters="sRGB">
<feFlood flood-opacity="0" result="BackgroundImageFix"/>
<feGaussianBlur in="BackgroundImageFix" stdDeviation="6.5"/>
<feComposite in2="SourceAlpha" operator="in" result="effect1_backgroundBlur_1_214"/>
<feBlend mode="normal" in="SourceGraphic" in2="effect1_backgroundBlur_1_214" result="shape"/>
</filter>
<filter id="filter2_b_1_214" x="6.94588" y="13.7833" width="48.9367" height="54.7676" filterUnits="userSpaceOnUse" color-interpolation-filters="sRGB">
<feFlood flood-opacity="0" result="BackgroundImageFix"/>
<feGaussianBlur in="BackgroundImageFix" stdDeviation="9.89992"/>
<feComposite in2="SourceAlpha" operator="in" result="effect1_backgroundBlur_1_214"/>
<feBlend mode="normal" in="SourceGraphic" in2="effect1_backgroundBlur_1_214" result="shape"/>
</filter>
<filter id="filter3_b_1_214" x="-3.55103" y="13.7834" width="48.9351" height="54.7693" filterUnits="userSpaceOnUse" color-interpolation-filters="sRGB">
<feFlood flood-opacity="0" result="BackgroundImageFix"/>
<feGaussianBlur in="BackgroundImageFix" stdDeviation="9.89992"/>
<feComposite in2="SourceAlpha" operator="in" result="effect1_backgroundBlur_1_214"/>
<feBlend mode="normal" in="SourceGraphic" in2="effect1_backgroundBlur_1_214" result="shape"/>
</filter>
<filter id="filter4_b_1_214" x="17.4494" y="13.785" width="45.4339" height="45.4339" filterUnits="userSpaceOnUse" color-interpolation-filters="sRGB">
<feFlood flood-opacity="0" result="BackgroundImageFix"/>
<feGaussianBlur in="BackgroundImageFix" stdDeviation="9.89992"/>
<feComposite in2="SourceAlpha" operator="in" result="effect1_backgroundBlur_1_214"/>
<feBlend mode="normal" in="SourceGraphic" in2="effect1_backgroundBlur_1_214" result="shape"/>
</filter>
<filter id="filter5_b_1_214" x="17.4495" y="13.7849" width="52.4444" height="54.7647" filterUnits="userSpaceOnUse" color-interpolation-filters="sRGB">
<feFlood flood-opacity="0" result="BackgroundImageFix"/>
<feGaussianBlur in="BackgroundImageFix" stdDeviation="9.89992"/>
<feComposite in2="SourceAlpha" operator="in" result="effect1_backgroundBlur_1_214"/>
<feBlend mode="normal" in="SourceGraphic" in2="effect1_backgroundBlur_1_214" result="shape"/>
</filter>
<filter id="filter6_b_1_214" x="24.4501" y="23.1187" width="45.4339" height="45.4339" filterUnits="userSpaceOnUse" color-interpolation-filters="sRGB">
<feFlood flood-opacity="0" result="BackgroundImageFix"/>
<feGaussianBlur in="BackgroundImageFix" stdDeviation="9.89992"/>
<feComposite in2="SourceAlpha" operator="in" result="effect1_backgroundBlur_1_214"/>
<feBlend mode="normal" in="SourceGraphic" in2="effect1_backgroundBlur_1_214" result="shape"/>
</filter>
<linearGradient id="paint0_linear_1_214" x1="5" y1="40.9961" x2="60.9932" y2="40.9961" gradientUnits="userSpaceOnUse">
<stop stop-color="#FF6A6A"/>
<stop offset="1" stop-color="#FF247B"/>
<stop offset="1" stop-color="#FE5196"/>
</linearGradient>
<linearGradient id="paint1_linear_1_214" x1="33.2604" y1="46.5632" x2="-18.4454" y2="28.6888" gradientUnits="userSpaceOnUse">
<stop stop-color="#FF5295"/>
<stop offset="1" stop-color="#DC1906"/>
</linearGradient>
<linearGradient id="paint2_linear_1_214" x1="39.0218" y1="41.6041" x2="27.7175" y2="26.9892" gradientUnits="userSpaceOnUse">
<stop stop-color="white"/>
<stop offset="1" stop-color="white" stop-opacity="0.61"/>
</linearGradient>
<linearGradient id="paint3_linear_1_214" x1="28.7644" y1="34.8243" x2="37.526" y2="43.6758" gradientUnits="userSpaceOnUse">
<stop stop-color="white"/>
<stop offset="1" stop-color="white" stop-opacity="0"/>
</linearGradient>
<linearGradient id="paint4_linear_1_214" x1="28.6182" y1="43.1014" x2="16.7601" y2="27.0683" gradientUnits="userSpaceOnUse">
<stop stop-color="white"/>
<stop offset="1" stop-color="white" stop-opacity="0.61"/>
</linearGradient>
<linearGradient id="paint5_linear_1_214" x1="17.7904" y1="35.4859" x2="27.2667" y2="45.0761" gradientUnits="userSpaceOnUse">
<stop stop-color="white"/>
<stop offset="1" stop-color="white" stop-opacity="0"/>
</linearGradient>
<linearGradient id="paint6_linear_1_214" x1="43.2531" y1="36.953" x2="38.8262" y2="31.1057" gradientUnits="userSpaceOnUse">
<stop stop-color="white"/>
<stop offset="1" stop-color="white" stop-opacity="0.61"/>
</linearGradient>
<linearGradient id="paint7_linear_1_214" x1="39.2285" y1="34.2055" x2="42.7097" y2="37.7253" gradientUnits="userSpaceOnUse">
<stop stop-color="white"/>
<stop offset="1" stop-color="white" stop-opacity="0"/>
</linearGradient>
<linearGradient id="paint8_linear_1_214" x1="49.3767" y1="38.5816" x2="44.9394" y2="33.7862" gradientUnits="userSpaceOnUse">
<stop stop-color="white"/>
<stop offset="1" stop-color="white" stop-opacity="0.61"/>
</linearGradient>
<linearGradient id="paint9_linear_1_214" x1="44.3764" y1="37.6015" x2="47.4629" y2="40.6976" gradientUnits="userSpaceOnUse">
<stop stop-color="white"/>
<stop offset="1" stop-color="white" stop-opacity="0"/>
</linearGradient>
<linearGradient id="paint10_linear_1_214" x1="50.2539" y1="46.2867" x2="45.8269" y2="40.4393" gradientUnits="userSpaceOnUse">
<stop stop-color="white"/>
<stop offset="1" stop-color="white" stop-opacity="0.61"/>
</linearGradient>
<linearGradient id="paint11_linear_1_214" x1="46.2293" y1="43.5392" x2="49.7104" y2="47.059" gradientUnits="userSpaceOnUse">
<stop stop-color="white"/>
<stop offset="1" stop-color="white" stop-opacity="0"/>
</linearGradient>
</defs>
</svg>
