<svg width="88" height="100" viewBox="0 0 88 100" fill="none" xmlns="http://www.w3.org/2000/svg">
<g filter="url(#filter0_di_1_230)">
<path d="M54.3334 50.0001C54.3334 55.0401 52.0467 59.7067 48.1034 62.8334C46.4934 64.0934 45.4434 65.7501 45.1167 67.5234L45 67.5001H31L30.8367 67.5234C30.51 65.6801 29.5534 64.0701 28.1767 63.0434C23.09 59.1934 20.71 52.8934 22.0167 46.5467C23.3 40.3634 28.3167 35.3234 34.5 34.0401C39.4234 32.9901 44.4634 34.2034 48.29 37.3067C52.14 40.4334 54.3334 45.0534 54.3334 50.0001V50.0001Z" fill="url(#paint0_radial_1_230)"/>
</g>
<g filter="url(#filter1_di_1_230)">
<path d="M53.3324 36.4176C52.8844 36.4176 52.4364 36.2473 52.0957 35.9043C51.412 35.2206 51.412 34.1123 52.0957 33.4286L55.325 30.1993C56.0087 29.5156 57.117 29.5156 57.8007 30.1993C58.4843 30.8829 58.4843 31.9913 57.8007 32.6749L54.5714 35.9043C54.2284 36.2449 53.7804 36.4176 53.3324 36.4176Z" fill="url(#paint1_radial_1_230)"/>
</g>
<g filter="url(#filter2_di_1_230)">
<path d="M64.25 51.75H59.6837C58.7177 51.75 57.9337 50.966 57.9337 50C57.9337 49.034 58.7177 48.25 59.6837 48.25H64.25C65.216 48.25 66 49.034 66 50C66 50.966 65.216 51.75 64.25 51.75Z" fill="url(#paint2_radial_1_230)"/>
</g>
<g filter="url(#filter3_di_1_230)">
<path d="M56.5617 70.3116C56.1137 70.3116 55.6657 70.1413 55.325 69.7983L52.0957 66.569C51.412 65.8853 51.412 64.777 52.0957 64.0933C52.7794 63.4096 53.8877 63.4096 54.5714 64.0933L57.8007 67.3226C58.4843 68.0063 58.4843 69.1146 57.8007 69.7983C57.4577 70.1413 57.0097 70.3116 56.5617 70.3116Z" fill="url(#paint3_radial_1_230)"/>
</g>
<g filter="url(#filter4_di_1_230)">
<path d="M45.0107 67.5021C45.0696 67.5139 45.1083 67.5706 45.0985 67.6298C45.0387 67.9912 45 68.3542 45 68.7367V73.9167C45 76.1567 43.1567 78 40.9167 78H35.0833C33.1233 78 31 76.5067 31 73.24V69.11C31 68.6259 30.962 68.1418 30.8689 67.6748C30.8526 67.593 30.9074 67.5132 30.99 67.5014V67.5014C30.9966 67.5005 31.0034 67.5 31.0101 67.5H44.9891C44.9963 67.5 45.0036 67.5007 45.0107 67.5021V67.5021Z" fill="url(#paint4_linear_1_230)"/>
</g>
<g filter="url(#filter5_di_1_230)">
<path d="M38 30.0663C37.034 30.0663 36.25 29.2823 36.25 28.3163V23.75C36.25 22.784 37.034 22 38 22C38.966 22 39.75 22.784 39.75 23.75V28.3163C39.75 29.2823 38.966 30.0663 38 30.0663Z" fill="url(#paint5_radial_1_230)"/>
</g>
<g filter="url(#filter6_di_1_230)">
<path d="M22.6677 36.4176C22.2197 36.4176 21.7717 36.2473 21.431 35.9043L18.2017 32.6749C17.518 31.9913 17.518 30.8829 18.2017 30.1993C18.8854 29.5156 19.9937 29.5156 20.6774 30.1993L23.9067 33.4286C24.5904 34.1123 24.5904 35.2206 23.9067 35.9043C23.5614 36.2449 23.1157 36.4176 22.6677 36.4176Z" fill="url(#paint6_radial_1_230)"/>
</g>
<g filter="url(#filter7_di_1_230)">
<path d="M16.3163 51.75H11.75C10.784 51.75 10 50.966 10 50C10 49.034 10.784 48.25 11.75 48.25H16.3163C17.2823 48.25 18.0663 49.034 18.0663 50C18.0663 50.966 17.2823 51.75 16.3163 51.75Z" fill="url(#paint7_radial_1_230)"/>
</g>
<g filter="url(#filter8_di_1_230)">
<path d="M19.4384 70.3116C18.9904 70.3116 18.5424 70.1413 18.2017 69.7983C17.518 69.1146 17.518 68.0063 18.2017 67.3226L21.431 64.0933C22.1147 63.4096 23.223 63.4096 23.9067 64.0933C24.5904 64.777 24.5904 65.8853 23.9067 66.569L20.6774 69.7983C20.3344 70.1413 19.8864 70.3116 19.4384 70.3116Z" fill="url(#paint8_radial_1_230)"/>
</g>
<defs>
<filter id="filter0_di_1_230" x="11.6637" y="11.6699" width="64.6697" height="65.8535" filterUnits="userSpaceOnUse" color-interpolation-filters="sRGB">
<feFlood flood-opacity="0" result="BackgroundImageFix"/>
<feColorMatrix in="SourceAlpha" type="matrix" values="0 0 0 0 0 0 0 0 0 0 0 0 0 0 0 0 0 0 127 0" result="hardAlpha"/>
<feOffset dx="6" dy="-6"/>
<feGaussianBlur stdDeviation="8"/>
<feColorMatrix type="matrix" values="0 0 0 0 1 0 0 0 0 0.670588 0 0 0 0 0.282353 0 0 0 0.2 0"/>
<feBlend mode="normal" in2="BackgroundImageFix" result="effect1_dropShadow_1_230"/>
<feBlend mode="normal" in="SourceGraphic" in2="effect1_dropShadow_1_230" result="shape"/>
<feColorMatrix in="SourceAlpha" type="matrix" values="0 0 0 0 0 0 0 0 0 0 0 0 0 0 0 0 0 0 127 0" result="hardAlpha"/>
<feOffset dx="-10" dy="10"/>
<feGaussianBlur stdDeviation="10"/>
<feComposite in2="hardAlpha" operator="arithmetic" k2="-1" k3="1"/>
<feColorMatrix type="matrix" values="0 0 0 0 1 0 0 0 0 1 0 0 0 0 1 0 0 0 0.24 0"/>
<feBlend mode="normal" in2="shape" result="effect2_innerShadow_1_230"/>
</filter>
<filter id="filter1_di_1_230" x="41.5829" y="7.68652" width="38.7305" height="38.7311" filterUnits="userSpaceOnUse" color-interpolation-filters="sRGB">
<feFlood flood-opacity="0" result="BackgroundImageFix"/>
<feColorMatrix in="SourceAlpha" type="matrix" values="0 0 0 0 0 0 0 0 0 0 0 0 0 0 0 0 0 0 127 0" result="hardAlpha"/>
<feOffset dx="6" dy="-6"/>
<feGaussianBlur stdDeviation="8"/>
<feColorMatrix type="matrix" values="0 0 0 0 1 0 0 0 0 0.670588 0 0 0 0 0.282353 0 0 0 0.2 0"/>
<feBlend mode="normal" in2="BackgroundImageFix" result="effect1_dropShadow_1_230"/>
<feBlend mode="normal" in="SourceGraphic" in2="effect1_dropShadow_1_230" result="shape"/>
<feColorMatrix in="SourceAlpha" type="matrix" values="0 0 0 0 0 0 0 0 0 0 0 0 0 0 0 0 0 0 127 0" result="hardAlpha"/>
<feOffset dx="-10" dy="10"/>
<feGaussianBlur stdDeviation="10"/>
<feComposite in2="hardAlpha" operator="arithmetic" k2="-1" k3="1"/>
<feColorMatrix type="matrix" values="0 0 0 0 1 0 0 0 0 1 0 0 0 0 1 0 0 0 0.24 0"/>
<feBlend mode="normal" in2="shape" result="effect2_innerShadow_1_230"/>
</filter>
<filter id="filter2_di_1_230" x="47.9337" y="26.25" width="40.0663" height="35.5" filterUnits="userSpaceOnUse" color-interpolation-filters="sRGB">
<feFlood flood-opacity="0" result="BackgroundImageFix"/>
<feColorMatrix in="SourceAlpha" type="matrix" values="0 0 0 0 0 0 0 0 0 0 0 0 0 0 0 0 0 0 127 0" result="hardAlpha"/>
<feOffset dx="6" dy="-6"/>
<feGaussianBlur stdDeviation="8"/>
<feColorMatrix type="matrix" values="0 0 0 0 1 0 0 0 0 0.670588 0 0 0 0 0.282353 0 0 0 0.2 0"/>
<feBlend mode="normal" in2="BackgroundImageFix" result="effect1_dropShadow_1_230"/>
<feBlend mode="normal" in="SourceGraphic" in2="effect1_dropShadow_1_230" result="shape"/>
<feColorMatrix in="SourceAlpha" type="matrix" values="0 0 0 0 0 0 0 0 0 0 0 0 0 0 0 0 0 0 127 0" result="hardAlpha"/>
<feOffset dx="-10" dy="10"/>
<feGaussianBlur stdDeviation="10"/>
<feComposite in2="hardAlpha" operator="arithmetic" k2="-1" k3="1"/>
<feColorMatrix type="matrix" values="0 0 0 0 1 0 0 0 0 1 0 0 0 0 1 0 0 0 0.24 0"/>
<feBlend mode="normal" in2="shape" result="effect2_innerShadow_1_230"/>
</filter>
<filter id="filter3_di_1_230" x="41.5829" y="41.5806" width="38.7305" height="38.7311" filterUnits="userSpaceOnUse" color-interpolation-filters="sRGB">
<feFlood flood-opacity="0" result="BackgroundImageFix"/>
<feColorMatrix in="SourceAlpha" type="matrix" values="0 0 0 0 0 0 0 0 0 0 0 0 0 0 0 0 0 0 127 0" result="hardAlpha"/>
<feOffset dx="6" dy="-6"/>
<feGaussianBlur stdDeviation="8"/>
<feColorMatrix type="matrix" values="0 0 0 0 1 0 0 0 0 0.670588 0 0 0 0 0.282353 0 0 0 0.2 0"/>
<feBlend mode="normal" in2="BackgroundImageFix" result="effect1_dropShadow_1_230"/>
<feBlend mode="normal" in="SourceGraphic" in2="effect1_dropShadow_1_230" result="shape"/>
<feColorMatrix in="SourceAlpha" type="matrix" values="0 0 0 0 0 0 0 0 0 0 0 0 0 0 0 0 0 0 127 0" result="hardAlpha"/>
<feOffset dx="-10" dy="10"/>
<feGaussianBlur stdDeviation="10"/>
<feComposite in2="hardAlpha" operator="arithmetic" k2="-1" k3="1"/>
<feColorMatrix type="matrix" values="0 0 0 0 1 0 0 0 0 1 0 0 0 0 1 0 0 0 0.24 0"/>
<feBlend mode="normal" in2="shape" result="effect2_innerShadow_1_230"/>
</filter>
<filter id="filter4_di_1_230" x="20.8661" y="57.5" width="46.2339" height="42.5" filterUnits="userSpaceOnUse" color-interpolation-filters="sRGB">
<feFlood flood-opacity="0" result="BackgroundImageFix"/>
<feColorMatrix in="SourceAlpha" type="matrix" values="0 0 0 0 0 0 0 0 0 0 0 0 0 0 0 0 0 0 127 0" result="hardAlpha"/>
<feOffset dx="6" dy="6"/>
<feGaussianBlur stdDeviation="8"/>
<feColorMatrix type="matrix" values="0 0 0 0 0.67451 0 0 0 0 0.686275 0 0 0 0 0.815686 0 0 0 0.35 0"/>
<feBlend mode="normal" in2="BackgroundImageFix" result="effect1_dropShadow_1_230"/>
<feBlend mode="normal" in="SourceGraphic" in2="effect1_dropShadow_1_230" result="shape"/>
<feColorMatrix in="SourceAlpha" type="matrix" values="0 0 0 0 0 0 0 0 0 0 0 0 0 0 0 0 0 0 127 0" result="hardAlpha"/>
<feOffset dx="-10" dy="-10"/>
<feGaussianBlur stdDeviation="10"/>
<feComposite in2="hardAlpha" operator="arithmetic" k2="-1" k3="1"/>
<feColorMatrix type="matrix" values="0 0 0 0 1 0 0 0 0 1 0 0 0 0 1 0 0 0 0.24 0"/>
<feBlend mode="normal" in2="shape" result="effect2_innerShadow_1_230"/>
</filter>
<filter id="filter5_di_1_230" x="26.25" y="0" width="35.5" height="40.0663" filterUnits="userSpaceOnUse" color-interpolation-filters="sRGB">
<feFlood flood-opacity="0" result="BackgroundImageFix"/>
<feColorMatrix in="SourceAlpha" type="matrix" values="0 0 0 0 0 0 0 0 0 0 0 0 0 0 0 0 0 0 127 0" result="hardAlpha"/>
<feOffset dx="6" dy="-6"/>
<feGaussianBlur stdDeviation="8"/>
<feColorMatrix type="matrix" values="0 0 0 0 1 0 0 0 0 0.670588 0 0 0 0 0.282353 0 0 0 0.2 0"/>
<feBlend mode="normal" in2="BackgroundImageFix" result="effect1_dropShadow_1_230"/>
<feBlend mode="normal" in="SourceGraphic" in2="effect1_dropShadow_1_230" result="shape"/>
<feColorMatrix in="SourceAlpha" type="matrix" values="0 0 0 0 0 0 0 0 0 0 0 0 0 0 0 0 0 0 127 0" result="hardAlpha"/>
<feOffset dx="-10" dy="10"/>
<feGaussianBlur stdDeviation="10"/>
<feComposite in2="hardAlpha" operator="arithmetic" k2="-1" k3="1"/>
<feColorMatrix type="matrix" values="0 0 0 0 1 0 0 0 0 1 0 0 0 0 1 0 0 0 0.24 0"/>
<feBlend mode="normal" in2="shape" result="effect2_innerShadow_1_230"/>
</filter>
<filter id="filter6_di_1_230" x="7.68896" y="7.68652" width="38.7305" height="38.7311" filterUnits="userSpaceOnUse" color-interpolation-filters="sRGB">
<feFlood flood-opacity="0" result="BackgroundImageFix"/>
<feColorMatrix in="SourceAlpha" type="matrix" values="0 0 0 0 0 0 0 0 0 0 0 0 0 0 0 0 0 0 127 0" result="hardAlpha"/>
<feOffset dx="6" dy="-6"/>
<feGaussianBlur stdDeviation="8"/>
<feColorMatrix type="matrix" values="0 0 0 0 1 0 0 0 0 0.670588 0 0 0 0 0.282353 0 0 0 0.2 0"/>
<feBlend mode="normal" in2="BackgroundImageFix" result="effect1_dropShadow_1_230"/>
<feBlend mode="normal" in="SourceGraphic" in2="effect1_dropShadow_1_230" result="shape"/>
<feColorMatrix in="SourceAlpha" type="matrix" values="0 0 0 0 0 0 0 0 0 0 0 0 0 0 0 0 0 0 127 0" result="hardAlpha"/>
<feOffset dx="-10" dy="10"/>
<feGaussianBlur stdDeviation="10"/>
<feComposite in2="hardAlpha" operator="arithmetic" k2="-1" k3="1"/>
<feColorMatrix type="matrix" values="0 0 0 0 1 0 0 0 0 1 0 0 0 0 1 0 0 0 0.24 0"/>
<feBlend mode="normal" in2="shape" result="effect2_innerShadow_1_230"/>
</filter>
<filter id="filter7_di_1_230" x="0" y="26.25" width="40.0663" height="35.5" filterUnits="userSpaceOnUse" color-interpolation-filters="sRGB">
<feFlood flood-opacity="0" result="BackgroundImageFix"/>
<feColorMatrix in="SourceAlpha" type="matrix" values="0 0 0 0 0 0 0 0 0 0 0 0 0 0 0 0 0 0 127 0" result="hardAlpha"/>
<feOffset dx="6" dy="-6"/>
<feGaussianBlur stdDeviation="8"/>
<feColorMatrix type="matrix" values="0 0 0 0 1 0 0 0 0 0.670588 0 0 0 0 0.282353 0 0 0 0.2 0"/>
<feBlend mode="normal" in2="BackgroundImageFix" result="effect1_dropShadow_1_230"/>
<feBlend mode="normal" in="SourceGraphic" in2="effect1_dropShadow_1_230" result="shape"/>
<feColorMatrix in="SourceAlpha" type="matrix" values="0 0 0 0 0 0 0 0 0 0 0 0 0 0 0 0 0 0 127 0" result="hardAlpha"/>
<feOffset dx="-10" dy="10"/>
<feGaussianBlur stdDeviation="10"/>
<feComposite in2="hardAlpha" operator="arithmetic" k2="-1" k3="1"/>
<feColorMatrix type="matrix" values="0 0 0 0 1 0 0 0 0 1 0 0 0 0 1 0 0 0 0.24 0"/>
<feBlend mode="normal" in2="shape" result="effect2_innerShadow_1_230"/>
</filter>
<filter id="filter8_di_1_230" x="7.68896" y="41.5806" width="38.7305" height="38.7311" filterUnits="userSpaceOnUse" color-interpolation-filters="sRGB">
<feFlood flood-opacity="0" result="BackgroundImageFix"/>
<feColorMatrix in="SourceAlpha" type="matrix" values="0 0 0 0 0 0 0 0 0 0 0 0 0 0 0 0 0 0 127 0" result="hardAlpha"/>
<feOffset dx="6" dy="-6"/>
<feGaussianBlur stdDeviation="8"/>
<feColorMatrix type="matrix" values="0 0 0 0 1 0 0 0 0 0.670588 0 0 0 0 0.282353 0 0 0 0.2 0"/>
<feBlend mode="normal" in2="BackgroundImageFix" result="effect1_dropShadow_1_230"/>
<feBlend mode="normal" in="SourceGraphic" in2="effect1_dropShadow_1_230" result="shape"/>
<feColorMatrix in="SourceAlpha" type="matrix" values="0 0 0 0 0 0 0 0 0 0 0 0 0 0 0 0 0 0 127 0" result="hardAlpha"/>
<feOffset dx="-10" dy="10"/>
<feGaussianBlur stdDeviation="10"/>
<feComposite in2="hardAlpha" operator="arithmetic" k2="-1" k3="1"/>
<feColorMatrix type="matrix" values="0 0 0 0 1 0 0 0 0 1 0 0 0 0 1 0 0 0 0.24 0"/>
<feBlend mode="normal" in2="shape" result="effect2_innerShadow_1_230"/>
</filter>
<radialGradient id="paint0_radial_1_230" cx="0" cy="0" r="1" gradientUnits="userSpaceOnUse" gradientTransform="translate(29.2029 31.0658) rotate(64.242) scale(23.1313 22.6335)">
<stop stop-color="#FFE974"/>
<stop offset="1" stop-color="#FFAB48"/>
</radialGradient>
<radialGradient id="paint1_radial_1_230" cx="0" cy="0" r="1" gradientUnits="userSpaceOnUse" gradientTransform="translate(53.1361 29.1687) rotate(63.437) scale(4.63104 4.6308)">
<stop stop-color="#FFE974"/>
<stop offset="1" stop-color="#FFAB48"/>
</radialGradient>
<radialGradient id="paint2_radial_1_230" cx="0" cy="0" r="1" gradientUnits="userSpaceOnUse" gradientTransform="translate(59.7952 47.9808) rotate(40.9516) scale(3.2862 4.0668)">
<stop stop-color="#FFE974"/>
<stop offset="1" stop-color="#FFAB48"/>
</radialGradient>
<radialGradient id="paint3_radial_1_230" cx="0" cy="0" r="1" gradientUnits="userSpaceOnUse" gradientTransform="translate(53.1361 63.0628) rotate(63.437) scale(4.63104 4.6308)">
<stop stop-color="#FFE974"/>
<stop offset="1" stop-color="#FFAB48"/>
</radialGradient>
<linearGradient id="paint4_linear_1_230" x1="31.4317" y1="67.5" x2="34.2594" y2="78.9204" gradientUnits="userSpaceOnUse">
<stop stop-color="#D7DDE8"/>
<stop offset="1" stop-color="#ACAFD0"/>
</linearGradient>
<radialGradient id="paint5_radial_1_230" cx="0" cy="0" r="1" gradientUnits="userSpaceOnUse" gradientTransform="translate(37.0577 21.3795) rotate(77.7593) scale(5.07937 2.6311)">
<stop stop-color="#FFE974"/>
<stop offset="1" stop-color="#FFAB48"/>
</radialGradient>
<radialGradient id="paint6_radial_1_230" cx="0" cy="0" r="1" gradientUnits="userSpaceOnUse" gradientTransform="translate(19.2422 29.1687) rotate(63.4369) scale(4.63104 4.6308)">
<stop stop-color="#FFE974"/>
<stop offset="1" stop-color="#FFAB48"/>
</radialGradient>
<radialGradient id="paint7_radial_1_230" cx="0" cy="0" r="1" gradientUnits="userSpaceOnUse" gradientTransform="translate(11.8615 47.9808) rotate(40.9516) scale(3.2862 4.0668)">
<stop stop-color="#FFE974"/>
<stop offset="1" stop-color="#FFAB48"/>
</radialGradient>
<radialGradient id="paint8_radial_1_230" cx="0" cy="0" r="1" gradientUnits="userSpaceOnUse" gradientTransform="translate(19.2422 63.0628) rotate(63.4369) scale(4.63104 4.6308)">
<stop stop-color="#FFE974"/>
<stop offset="1" stop-color="#FFAB48"/>
</radialGradient>
</defs>
</svg>
