<svg width="242" height="214" viewBox="0 0 242 214" fill="none" xmlns="http://www.w3.org/2000/svg">
<g filter="url(#filter0_d_53_14)">
<path fill-rule="evenodd" clip-rule="evenodd" d="M195.205 80.4651H197.856C199.058 80.4651 200.211 80.947 201.061 81.8055C201.911 82.6632 202.389 83.8273 202.389 85.0409V98.1259C202.389 99.3395 201.911 100.504 201.061 101.361C200.211 102.22 199.058 102.702 197.856 102.702H195.205C193.905 102.789 192.656 103.24 191.596 104.005C190.537 104.769 189.71 105.817 189.209 107.03C189.125 107.238 189.04 107.445 188.953 107.652C188.458 108.867 188.308 110.197 188.522 111.494C188.735 112.79 189.302 114.002 190.16 114.99L192.035 116.883C192.886 117.74 193.363 118.905 193.363 120.118C193.363 121.331 192.886 122.495 192.035 123.353L182.867 132.606C182.017 133.464 180.864 133.946 179.662 133.946C178.46 133.946 177.306 133.464 176.456 132.606L174.581 130.713C173.601 129.848 172.402 129.275 171.117 129.06C169.832 128.845 168.514 128.996 167.31 129.496C167.105 129.583 166.9 129.669 166.694 129.753C165.492 130.26 164.454 131.095 163.696 132.163C162.938 133.232 162.491 134.493 162.405 135.805V138.481C162.405 139.693 161.928 140.857 161.077 141.715C160.227 142.574 159.074 143.056 157.871 143.056H144.906C143.704 143.056 142.551 142.574 141.701 141.715C140.85 140.857 140.373 139.693 140.373 138.481V135.805C140.286 134.493 139.839 133.232 139.082 132.163C138.324 131.094 137.286 130.259 136.084 129.753C135.878 129.669 135.672 129.583 135.468 129.496C134.264 128.995 132.946 128.845 131.661 129.06C130.376 129.275 129.176 129.848 128.197 130.713L126.322 132.606C125.472 133.464 124.318 133.946 123.116 133.946C121.914 133.946 120.761 133.464 119.911 132.606L110.743 123.353C109.892 122.495 109.415 121.331 109.415 120.118C109.415 118.905 109.892 117.741 110.743 116.883L112.618 114.99C113.476 114.001 114.043 112.791 114.256 111.494C114.47 110.198 114.319 108.867 113.824 107.652C113.737 107.445 113.653 107.237 113.569 107.029C113.067 105.816 112.24 104.769 111.181 104.004C110.122 103.239 108.872 102.788 107.573 102.701H104.922C103.72 102.701 102.567 102.22 101.717 101.361C100.866 100.503 100.389 99.3393 100.389 98.1257V85.0407C100.389 83.8271 100.866 82.663 101.717 81.8053C102.567 80.9468 103.72 80.4649 104.922 80.4649H107.573C108.872 80.3779 110.122 79.9263 111.182 79.162C112.241 78.3969 113.068 77.3493 113.569 76.1365C113.653 75.9283 113.737 75.7217 113.824 75.515C114.32 74.2999 114.47 72.9691 114.256 71.6726C114.043 70.3762 113.476 69.1649 112.618 68.1763L110.743 66.2838C109.892 65.4261 109.415 64.262 109.415 63.0484C109.415 61.8356 109.892 60.6715 110.743 59.8138L119.911 50.5609C120.761 49.7024 121.914 49.2205 123.116 49.2205C124.318 49.2205 125.472 49.7024 126.322 50.5609L128.197 52.4534C129.177 53.3191 130.376 53.8912 131.661 54.1066C132.945 54.322 134.264 54.1704 135.468 53.671C135.673 53.5832 135.878 53.4979 136.084 53.4133C137.286 52.9066 138.324 52.0721 139.082 51.0037C139.84 49.9346 140.286 48.6731 140.373 47.3614V44.6861C140.373 43.4733 140.85 42.3092 141.701 41.4515C142.551 40.593 143.704 40.1111 144.906 40.1111H157.871C159.074 40.1111 160.227 40.593 161.077 41.4515C161.928 42.3092 162.405 43.4733 162.405 44.6861V47.3614C162.491 48.6731 162.939 49.9345 163.696 51.0037C164.454 52.0729 165.492 52.9074 166.694 53.4133C166.9 53.4979 167.106 53.5832 167.31 53.671C168.514 54.1704 169.832 54.322 171.117 54.1066C172.401 53.8912 173.602 53.3191 174.581 52.4534L176.456 50.5609C177.306 49.7024 178.46 49.2205 179.662 49.2205C180.864 49.2205 182.017 49.7024 182.868 50.5609L192.035 59.8138C192.886 60.6715 193.363 61.8356 193.363 63.0484C193.363 64.262 192.886 65.4261 192.035 66.2838L190.16 68.1763C189.302 69.1658 188.735 70.376 188.522 71.6726C188.308 72.969 188.459 74.2999 188.953 75.515C188.987 75.595 189.02 75.6758 189.053 75.7559C189.106 75.8827 189.157 76.0098 189.209 76.1374C189.711 77.3502 190.538 78.3978 191.596 79.1622C192.656 79.9273 193.905 80.3781 195.205 80.4651ZM151.166 104.845C158.546 104.845 164.529 98.8068 164.529 91.3585C164.529 83.9103 158.546 77.8724 151.166 77.8724C143.786 77.8724 137.804 83.9103 137.804 91.3585C137.804 98.8068 143.786 104.845 151.166 104.845Z" fill="url(#paint0_linear_53_14)"/>
<g filter="url(#filter1_bi_53_14)">
<mask id="path-2-inside-1_53_14" fill="white">
<path fill-rule="evenodd" clip-rule="evenodd" d="M165.422 61.3117H168.956C170.558 61.3117 172.096 61.9484 173.229 63.0825C174.363 64.2156 175 65.7536 175 67.3568V84.6434C175 86.2467 174.363 87.7846 173.229 88.9177C172.096 90.0519 170.558 90.6885 168.956 90.6885H165.422C163.689 90.8034 162.022 91.4001 160.61 92.4098C159.197 93.4195 158.095 94.8045 157.426 96.4067C157.315 96.6818 157.202 96.9548 157.086 97.2278C156.425 98.8331 156.226 100.591 156.51 102.304C156.795 104.017 157.551 105.617 158.695 106.923L161.195 109.423C162.329 110.556 162.966 112.094 162.966 113.697C162.966 115.3 162.329 116.838 161.195 117.971L148.971 130.195C147.838 131.329 146.3 131.966 144.697 131.966C143.094 131.966 141.556 131.329 140.423 130.195L137.923 127.695C136.616 126.551 135.017 125.795 133.304 125.51C131.591 125.226 129.833 125.426 128.228 126.086C127.955 126.202 127.682 126.315 127.407 126.426C125.803 127.096 124.42 128.198 123.41 129.61C122.399 131.022 121.803 132.689 121.688 134.422V137.956C121.688 139.558 121.052 141.096 119.918 142.229C118.784 143.363 117.246 144 115.643 144H98.3567C96.7534 144 95.2155 143.363 94.0824 142.229C92.9482 141.096 92.3116 139.558 92.3116 137.956V134.422C92.1967 132.689 91.6001 131.022 90.5903 129.61C89.5795 128.197 88.1956 127.095 86.5934 126.426C86.3183 126.315 86.0442 126.202 85.7723 126.086C84.167 125.425 82.4089 125.226 80.696 125.51C78.9833 125.795 77.3831 126.551 76.0771 127.695L73.5769 130.195C72.4438 131.329 70.9058 131.966 69.3026 131.966C67.7004 131.966 66.1625 131.329 65.0294 130.195L52.8053 117.971C51.6711 116.838 51.0344 115.3 51.0344 113.697C51.0344 112.094 51.6711 110.556 52.8053 109.423L55.3055 106.923C56.4492 105.616 57.205 104.017 57.4895 102.304C57.7742 100.591 57.5739 98.8332 56.914 97.2278V97.2268C56.7981 96.9538 56.6853 96.6808 56.5736 96.4056C55.9042 94.8033 54.8016 93.4194 53.3892 92.4096C51.9779 91.3987 50.3113 90.8032 48.5784 90.6882H45.0441C43.4418 90.6882 41.904 90.0516 40.7708 88.9175C39.6367 87.7844 39 86.2464 39 84.6432V67.3566C39 65.7533 39.6367 64.2154 40.7708 63.0823C41.9039 61.9481 43.4419 61.3115 45.0441 61.3115H48.5784C50.3114 61.1966 51.9778 60.6 53.3903 59.5902C54.8027 58.5794 55.9053 57.1955 56.5736 55.5933C56.6853 55.3181 56.7981 55.0452 56.914 54.7722C57.5749 53.1669 57.7742 51.4088 57.4895 49.6959C57.205 47.9832 56.4492 46.383 55.3055 45.077L52.8053 42.5768C51.6711 41.4437 51.0344 39.9057 51.0344 38.3025C51.0344 36.7003 51.6711 35.1624 52.8053 34.0293L65.0294 21.8053C66.1624 20.6711 67.7004 20.0344 69.3026 20.0344C70.9059 20.0344 72.4437 20.6711 73.5769 21.8053L76.0771 24.3055C77.3842 25.4491 78.9831 26.205 80.696 26.4895C82.4087 26.7741 84.1669 26.5738 85.7723 25.914C86.0453 25.798 86.3183 25.6853 86.5934 25.5735C88.1965 24.9042 89.5805 23.8016 90.5903 22.3902C91.6011 20.9779 92.1967 19.3113 92.3116 17.5784V14.0441C92.3116 12.4418 92.9482 10.904 94.0824 9.77086C95.2155 8.63666 96.7535 8 98.3567 8H115.643C117.247 8 118.784 8.63666 119.918 9.77086C121.052 10.9039 121.688 12.4418 121.688 14.0441V17.5784C121.803 19.3113 122.4 20.9778 123.41 22.3902C124.421 23.8027 125.804 24.9052 127.407 25.5735C127.682 25.6853 127.956 25.798 128.228 25.914C129.833 26.5738 131.591 26.7741 133.304 26.4895C135.017 26.205 136.617 25.4491 137.923 24.3055L140.423 21.8053C141.556 20.6711 143.094 20.0344 144.697 20.0344C146.3 20.0344 147.838 20.6711 148.972 21.8053L161.195 34.0293C162.329 35.1624 162.966 36.7003 162.966 38.3025C162.966 39.9058 162.329 41.4437 161.195 42.5768L158.695 45.077C157.551 46.3842 156.795 47.983 156.51 49.6959C156.226 51.4086 156.426 53.1668 157.086 54.7722V54.7732C157.131 54.8789 157.175 54.9846 157.219 55.0904C157.289 55.258 157.358 55.4258 157.426 55.5944C158.096 57.1967 159.198 58.5806 160.61 59.5904C162.022 60.6013 163.689 61.1968 165.422 61.3117ZM106.703 93.5196C116.543 93.5196 124.52 85.5429 124.52 75.7031C124.52 65.8632 116.543 57.8865 106.703 57.8865C96.8632 57.8865 88.8865 65.8632 88.8865 75.7031C88.8865 85.5429 96.8632 93.5196 106.703 93.5196Z"/>
</mask>
<path fill-rule="evenodd" clip-rule="evenodd" d="M165.422 61.3117H168.956C170.558 61.3117 172.096 61.9484 173.229 63.0825C174.363 64.2156 175 65.7536 175 67.3568V84.6434C175 86.2467 174.363 87.7846 173.229 88.9177C172.096 90.0519 170.558 90.6885 168.956 90.6885H165.422C163.689 90.8034 162.022 91.4001 160.61 92.4098C159.197 93.4195 158.095 94.8045 157.426 96.4067C157.315 96.6818 157.202 96.9548 157.086 97.2278C156.425 98.8331 156.226 100.591 156.51 102.304C156.795 104.017 157.551 105.617 158.695 106.923L161.195 109.423C162.329 110.556 162.966 112.094 162.966 113.697C162.966 115.3 162.329 116.838 161.195 117.971L148.971 130.195C147.838 131.329 146.3 131.966 144.697 131.966C143.094 131.966 141.556 131.329 140.423 130.195L137.923 127.695C136.616 126.551 135.017 125.795 133.304 125.51C131.591 125.226 129.833 125.426 128.228 126.086C127.955 126.202 127.682 126.315 127.407 126.426C125.803 127.096 124.42 128.198 123.41 129.61C122.399 131.022 121.803 132.689 121.688 134.422V137.956C121.688 139.558 121.052 141.096 119.918 142.229C118.784 143.363 117.246 144 115.643 144H98.3567C96.7534 144 95.2155 143.363 94.0824 142.229C92.9482 141.096 92.3116 139.558 92.3116 137.956V134.422C92.1967 132.689 91.6001 131.022 90.5903 129.61C89.5795 128.197 88.1956 127.095 86.5934 126.426C86.3183 126.315 86.0442 126.202 85.7723 126.086C84.167 125.425 82.4089 125.226 80.696 125.51C78.9833 125.795 77.3831 126.551 76.0771 127.695L73.5769 130.195C72.4438 131.329 70.9058 131.966 69.3026 131.966C67.7004 131.966 66.1625 131.329 65.0294 130.195L52.8053 117.971C51.6711 116.838 51.0344 115.3 51.0344 113.697C51.0344 112.094 51.6711 110.556 52.8053 109.423L55.3055 106.923C56.4492 105.616 57.205 104.017 57.4895 102.304C57.7742 100.591 57.5739 98.8332 56.914 97.2278V97.2268C56.7981 96.9538 56.6853 96.6808 56.5736 96.4056C55.9042 94.8033 54.8016 93.4194 53.3892 92.4096C51.9779 91.3987 50.3113 90.8032 48.5784 90.6882H45.0441C43.4418 90.6882 41.904 90.0516 40.7708 88.9175C39.6367 87.7844 39 86.2464 39 84.6432V67.3566C39 65.7533 39.6367 64.2154 40.7708 63.0823C41.9039 61.9481 43.4419 61.3115 45.0441 61.3115H48.5784C50.3114 61.1966 51.9778 60.6 53.3903 59.5902C54.8027 58.5794 55.9053 57.1955 56.5736 55.5933C56.6853 55.3181 56.7981 55.0452 56.914 54.7722C57.5749 53.1669 57.7742 51.4088 57.4895 49.6959C57.205 47.9832 56.4492 46.383 55.3055 45.077L52.8053 42.5768C51.6711 41.4437 51.0344 39.9057 51.0344 38.3025C51.0344 36.7003 51.6711 35.1624 52.8053 34.0293L65.0294 21.8053C66.1624 20.6711 67.7004 20.0344 69.3026 20.0344C70.9059 20.0344 72.4437 20.6711 73.5769 21.8053L76.0771 24.3055C77.3842 25.4491 78.9831 26.205 80.696 26.4895C82.4087 26.7741 84.1669 26.5738 85.7723 25.914C86.0453 25.798 86.3183 25.6853 86.5934 25.5735C88.1965 24.9042 89.5805 23.8016 90.5903 22.3902C91.6011 20.9779 92.1967 19.3113 92.3116 17.5784V14.0441C92.3116 12.4418 92.9482 10.904 94.0824 9.77086C95.2155 8.63666 96.7535 8 98.3567 8H115.643C117.247 8 118.784 8.63666 119.918 9.77086C121.052 10.9039 121.688 12.4418 121.688 14.0441V17.5784C121.803 19.3113 122.4 20.9778 123.41 22.3902C124.421 23.8027 125.804 24.9052 127.407 25.5735C127.682 25.6853 127.956 25.798 128.228 25.914C129.833 26.5738 131.591 26.7741 133.304 26.4895C135.017 26.205 136.617 25.4491 137.923 24.3055L140.423 21.8053C141.556 20.6711 143.094 20.0344 144.697 20.0344C146.3 20.0344 147.838 20.6711 148.972 21.8053L161.195 34.0293C162.329 35.1624 162.966 36.7003 162.966 38.3025C162.966 39.9058 162.329 41.4437 161.195 42.5768L158.695 45.077C157.551 46.3842 156.795 47.983 156.51 49.6959C156.226 51.4086 156.426 53.1668 157.086 54.7722V54.7732C157.131 54.8789 157.175 54.9846 157.219 55.0904C157.289 55.258 157.358 55.4258 157.426 55.5944C158.096 57.1967 159.198 58.5806 160.61 59.5904C162.022 60.6013 163.689 61.1968 165.422 61.3117ZM106.703 93.5196C116.543 93.5196 124.52 85.5429 124.52 75.7031C124.52 65.8632 116.543 57.8865 106.703 57.8865C96.8632 57.8865 88.8865 65.8632 88.8865 75.7031C88.8865 85.5429 96.8632 93.5196 106.703 93.5196Z" fill="url(#paint1_linear_53_14)"/>
<path fill-rule="evenodd" clip-rule="evenodd" d="M165.422 61.3117H168.956C170.558 61.3117 172.096 61.9484 173.229 63.0825C174.363 64.2156 175 65.7536 175 67.3568V84.6434C175 86.2467 174.363 87.7846 173.229 88.9177C172.096 90.0519 170.558 90.6885 168.956 90.6885H165.422C163.689 90.8034 162.022 91.4001 160.61 92.4098C159.197 93.4195 158.095 94.8045 157.426 96.4067C157.315 96.6818 157.202 96.9548 157.086 97.2278C156.425 98.8331 156.226 100.591 156.51 102.304C156.795 104.017 157.551 105.617 158.695 106.923L161.195 109.423C162.329 110.556 162.966 112.094 162.966 113.697C162.966 115.3 162.329 116.838 161.195 117.971L148.971 130.195C147.838 131.329 146.3 131.966 144.697 131.966C143.094 131.966 141.556 131.329 140.423 130.195L137.923 127.695C136.616 126.551 135.017 125.795 133.304 125.51C131.591 125.226 129.833 125.426 128.228 126.086C127.955 126.202 127.682 126.315 127.407 126.426C125.803 127.096 124.42 128.198 123.41 129.61C122.399 131.022 121.803 132.689 121.688 134.422V137.956C121.688 139.558 121.052 141.096 119.918 142.229C118.784 143.363 117.246 144 115.643 144H98.3567C96.7534 144 95.2155 143.363 94.0824 142.229C92.9482 141.096 92.3116 139.558 92.3116 137.956V134.422C92.1967 132.689 91.6001 131.022 90.5903 129.61C89.5795 128.197 88.1956 127.095 86.5934 126.426C86.3183 126.315 86.0442 126.202 85.7723 126.086C84.167 125.425 82.4089 125.226 80.696 125.51C78.9833 125.795 77.3831 126.551 76.0771 127.695L73.5769 130.195C72.4438 131.329 70.9058 131.966 69.3026 131.966C67.7004 131.966 66.1625 131.329 65.0294 130.195L52.8053 117.971C51.6711 116.838 51.0344 115.3 51.0344 113.697C51.0344 112.094 51.6711 110.556 52.8053 109.423L55.3055 106.923C56.4492 105.616 57.205 104.017 57.4895 102.304C57.7742 100.591 57.5739 98.8332 56.914 97.2278V97.2268C56.7981 96.9538 56.6853 96.6808 56.5736 96.4056C55.9042 94.8033 54.8016 93.4194 53.3892 92.4096C51.9779 91.3987 50.3113 90.8032 48.5784 90.6882H45.0441C43.4418 90.6882 41.904 90.0516 40.7708 88.9175C39.6367 87.7844 39 86.2464 39 84.6432V67.3566C39 65.7533 39.6367 64.2154 40.7708 63.0823C41.9039 61.9481 43.4419 61.3115 45.0441 61.3115H48.5784C50.3114 61.1966 51.9778 60.6 53.3903 59.5902C54.8027 58.5794 55.9053 57.1955 56.5736 55.5933C56.6853 55.3181 56.7981 55.0452 56.914 54.7722C57.5749 53.1669 57.7742 51.4088 57.4895 49.6959C57.205 47.9832 56.4492 46.383 55.3055 45.077L52.8053 42.5768C51.6711 41.4437 51.0344 39.9057 51.0344 38.3025C51.0344 36.7003 51.6711 35.1624 52.8053 34.0293L65.0294 21.8053C66.1624 20.6711 67.7004 20.0344 69.3026 20.0344C70.9059 20.0344 72.4437 20.6711 73.5769 21.8053L76.0771 24.3055C77.3842 25.4491 78.9831 26.205 80.696 26.4895C82.4087 26.7741 84.1669 26.5738 85.7723 25.914C86.0453 25.798 86.3183 25.6853 86.5934 25.5735C88.1965 24.9042 89.5805 23.8016 90.5903 22.3902C91.6011 20.9779 92.1967 19.3113 92.3116 17.5784V14.0441C92.3116 12.4418 92.9482 10.904 94.0824 9.77086C95.2155 8.63666 96.7535 8 98.3567 8H115.643C117.247 8 118.784 8.63666 119.918 9.77086C121.052 10.9039 121.688 12.4418 121.688 14.0441V17.5784C121.803 19.3113 122.4 20.9778 123.41 22.3902C124.421 23.8027 125.804 24.9052 127.407 25.5735C127.682 25.6853 127.956 25.798 128.228 25.914C129.833 26.5738 131.591 26.7741 133.304 26.4895C135.017 26.205 136.617 25.4491 137.923 24.3055L140.423 21.8053C141.556 20.6711 143.094 20.0344 144.697 20.0344C146.3 20.0344 147.838 20.6711 148.972 21.8053L161.195 34.0293C162.329 35.1624 162.966 36.7003 162.966 38.3025C162.966 39.9058 162.329 41.4437 161.195 42.5768L158.695 45.077C157.551 46.3842 156.795 47.983 156.51 49.6959C156.226 51.4086 156.426 53.1668 157.086 54.7722V54.7732C157.131 54.8789 157.175 54.9846 157.219 55.0904C157.289 55.258 157.358 55.4258 157.426 55.5944C158.096 57.1967 159.198 58.5806 160.61 59.5904C162.022 60.6013 163.689 61.1968 165.422 61.3117ZM106.703 93.5196C116.543 93.5196 124.52 85.5429 124.52 75.7031C124.52 65.8632 116.543 57.8865 106.703 57.8865C96.8632 57.8865 88.8865 65.8632 88.8865 75.7031C88.8865 85.5429 96.8632 93.5196 106.703 93.5196Z" stroke="url(#paint2_linear_53_14)" stroke-width="2" mask="url(#path-2-inside-1_53_14)"/>
</g>
<path d="M156.695 48.8363C157.062 47.4498 157.745 46.1628 158.695 45.077L161.195 42.5768C162.329 41.4437 162.966 39.9058 162.966 38.3025C162.966 36.7003 162.329 35.1624 161.195 34.0293L148.972 21.8053C147.838 20.6711 146.3 20.0344 144.697 20.0344C143.094 20.0344 141.556 20.6711 140.423 21.8053L137.923 24.3055C136.617 25.4491 135.017 26.205 133.304 26.4895C131.591 26.7741 129.833 26.5738 128.228 25.914C127.956 25.798 127.682 25.6853 127.407 25.5735C125.804 24.9052 124.421 23.8027 123.41 22.3902C122.4 20.9778 121.803 19.3113 121.688 17.5784V14.0441C121.688 12.4418 121.052 10.9039 119.918 9.77086C118.784 8.63666 117.247 8 115.643 8H98.3567C96.7535 8 95.2155 8.63666 94.0824 9.77086C92.9482 10.904 92.3116 12.4418 92.3116 14.0441V17.5784C92.1967 19.3113 91.6011 20.9779 90.5903 22.3902C89.5805 23.8016 88.1965 24.9042 86.5934 25.5735C86.3183 25.6853 86.0453 25.798 85.7723 25.914C84.1669 26.5738 82.4087 26.7741 80.696 26.4895C78.9831 26.205 77.3842 25.4491 76.0771 24.3055L73.5769 21.8053C72.4437 20.6711 70.9059 20.0344 69.3026 20.0344C67.7004 20.0344 66.1624 20.6711 65.0294 21.8053L52.8053 34.0293C51.6711 35.1624 51.0344 36.7003 51.0344 38.3025C51.0344 39.9057 51.6711 41.4437 52.8053 42.5768L55.3055 45.077C56.4492 46.383 57.205 47.9832 57.4895 49.6959C57.7742 51.4088 57.5749 53.1669 56.914 54.7722C56.7981 55.0452 56.6853 55.3181 56.5736 55.5933C55.9053 57.1955 54.8027 58.5794 53.3903 59.5902C51.9778 60.6 50.3114 61.1966 48.5784 61.3115H45.0441C43.4419 61.3115 41.9039 61.9481 40.7708 63.0823C39.6367 64.2154 39 65.7533 39 67.3566V84.6432C39 86.2464 39.6367 87.7844 40.7708 88.9175C41.904 90.0516 43.4418 90.6882 45.0441 90.6882H48.5784C50.3113 90.8032 51.9779 91.3987 53.3892 92.4096C54.8016 93.4194 55.9042 94.8033 56.5736 96.4056C56.6853 96.6808 56.7981 96.9538 56.914 97.2268V97.2278C57.5739 98.8332 57.7742 100.591 57.4895 102.304C57.205 104.017 56.4492 105.616 55.3055 106.923L52.8053 109.423C51.6711 110.556 51.0344 112.094 51.0344 113.697C51.0344 114.599 51.2361 115.481 51.6147 116.281C60.8543 106.928 74.0436 96.7979 92.8708 86.9334C90.3796 83.8688 88.8865 79.9603 88.8865 75.7031C88.8865 65.8632 96.8632 57.8865 106.703 57.8865C115.148 57.8865 122.221 63.7621 124.056 71.6485C137.966 64.0558 148.586 56.2882 156.695 48.8363Z" fill="white" fill-opacity="0.09"/>
<g filter="url(#filter2_d_53_14)">
<path d="M125.536 75.6867C125.536 86.0694 117.12 94.4862 106.737 94.4862C96.3542 94.4862 87.9374 86.0694 87.9374 75.6867C87.9374 65.304 96.3542 56.8872 106.737 56.8872C117.12 56.8872 125.536 65.304 125.536 75.6867Z" fill="url(#paint3_linear_53_14)"/>
<path d="M125.036 75.6867C125.036 85.7932 116.843 93.9862 106.737 93.9862C96.6303 93.9862 88.4374 85.7932 88.4374 75.6867C88.4374 65.5802 96.6303 57.3872 106.737 57.3872C116.843 57.3872 125.036 65.5802 125.036 75.6867Z" stroke="white" stroke-opacity="0.14"/>
</g>
</g>
<defs>
<filter id="filter0_d_53_14" x="0" y="0" width="241.389" height="214" filterUnits="userSpaceOnUse" color-interpolation-filters="sRGB">
<feFlood flood-opacity="0" result="BackgroundImageFix"/>
<feColorMatrix in="SourceAlpha" type="matrix" values="0 0 0 0 0 0 0 0 0 0 0 0 0 0 0 0 0 0 127 0" result="hardAlpha"/>
<feOffset dy="31"/>
<feGaussianBlur stdDeviation="19.5"/>
<feComposite in2="hardAlpha" operator="out"/>
<feColorMatrix type="matrix" values="0 0 0 0 0.435294 0 0 0 0 0.294118 0 0 0 0 0.894118 0 0 0 0.21 0"/>
<feBlend mode="normal" in2="BackgroundImageFix" result="effect1_dropShadow_53_14"/>
<feBlend mode="normal" in="SourceGraphic" in2="effect1_dropShadow_53_14" result="shape"/>
</filter>
<filter id="filter1_bi_53_14" x="22" y="-9" width="170" height="170" filterUnits="userSpaceOnUse" color-interpolation-filters="sRGB">
<feFlood flood-opacity="0" result="BackgroundImageFix"/>
<feGaussianBlur in="BackgroundImageFix" stdDeviation="8.5"/>
<feComposite in2="SourceAlpha" operator="in" result="effect1_backgroundBlur_53_14"/>
<feBlend mode="normal" in="SourceGraphic" in2="effect1_backgroundBlur_53_14" result="shape"/>
<feColorMatrix in="SourceAlpha" type="matrix" values="0 0 0 0 0 0 0 0 0 0 0 0 0 0 0 0 0 0 127 0" result="hardAlpha"/>
<feOffset/>
<feGaussianBlur stdDeviation="2"/>
<feComposite in2="hardAlpha" operator="arithmetic" k2="-1" k3="1"/>
<feColorMatrix type="matrix" values="0 0 0 0 1 0 0 0 0 1 0 0 0 0 1 0 0 0 0.63 0"/>
<feBlend mode="normal" in2="shape" result="effect2_innerShadow_53_14"/>
</filter>
<filter id="filter2_d_53_14" x="81.9374" y="56.8872" width="49.599" height="49.599" filterUnits="userSpaceOnUse" color-interpolation-filters="sRGB">
<feFlood flood-opacity="0" result="BackgroundImageFix"/>
<feColorMatrix in="SourceAlpha" type="matrix" values="0 0 0 0 0 0 0 0 0 0 0 0 0 0 0 0 0 0 127 0" result="hardAlpha"/>
<feOffset dy="6"/>
<feGaussianBlur stdDeviation="3"/>
<feComposite in2="hardAlpha" operator="out"/>
<feColorMatrix type="matrix" values="0 0 0 0 0.635294 0 0 0 0 0.294118 0 0 0 0 0.894118 0 0 0 0.27 0"/>
<feBlend mode="normal" in2="BackgroundImageFix" result="effect1_dropShadow_53_14"/>
<feBlend mode="normal" in="SourceGraphic" in2="effect1_dropShadow_53_14" result="shape"/>
</filter>
<linearGradient id="paint0_linear_53_14" x1="81.4248" y1="93.6877" x2="110.195" y2="22.3412" gradientUnits="userSpaceOnUse">
<stop stop-color="#844AE3"/>
<stop offset="1" stop-color="#E14AE3"/>
</linearGradient>
<linearGradient id="paint1_linear_53_14" x1="107" y1="8" x2="107" y2="147.139" gradientUnits="userSpaceOnUse">
<stop stop-color="#AB4BE4" stop-opacity="0.42"/>
<stop offset="1" stop-color="#E14BE4" stop-opacity="0.49"/>
</linearGradient>
<linearGradient id="paint2_linear_53_14" x1="66.973" y1="32.8553" x2="139.189" y2="157.556" gradientUnits="userSpaceOnUse">
<stop offset="0.331091" stop-color="white" stop-opacity="0.26"/>
<stop offset="1" stop-color="#AB4BE4" stop-opacity="0.16"/>
</linearGradient>
<linearGradient id="paint3_linear_53_14" x1="86.9681" y1="84.0948" x2="126.964" y2="83.8918" gradientUnits="userSpaceOnUse">
<stop stop-color="#E9C7FC"/>
<stop offset="1" stop-color="#FEFCFF"/>
</linearGradient>
</defs>
</svg>
