<svg width="70" height="70" viewBox="0 0 70 70" fill="none" xmlns="http://www.w3.org/2000/svg">
<path d="M33.125 10.7292H26.875C26.0125 10.7292 25.3125 11.4292 25.3125 12.2917V18.5417C25.3125 19.4042 26.0125 20.1042 26.875 20.1042H33.125C33.9875 20.1042 34.6875 19.4042 34.6875 18.5417V12.2917C34.6875 11.4292 33.9875 10.7292 33.125 10.7292Z" fill="url(#paint0_linear_1_272)"/>
<path d="M44.3313 36.1521L43.875 36.0834H16.125L15.6688 36.1521C11.4667 37.4313 8.64587 41.2396 8.64587 45.625V53.4375C8.64587 54.3 9.34587 55 10.2084 55H49.7917C50.6542 55 51.3542 54.3 51.3542 53.4375V45.625C51.3542 41.2396 48.5334 37.4313 44.3313 36.1521Z" fill="url(#paint1_linear_1_272)"/>
<g filter="url(#filter0_bd_1_272)">
<path d="M30 17.5C21.3833 17.5 14.375 24.5083 14.375 33.125C14.375 41.7417 21.3833 48.75 30 48.75C38.6167 48.75 45.625 41.7417 45.625 33.125C45.625 24.5083 38.6167 17.5 30 17.5Z" fill="url(#paint2_linear_1_272)"/>
<path d="M14.507 33.125C14.507 24.5812 21.4562 17.632 30 17.632C38.5438 17.632 45.493 24.5812 45.493 33.125C45.493 41.6688 38.5438 48.618 30 48.618C21.4562 48.618 14.507 41.6688 14.507 33.125Z" stroke="url(#paint3_linear_1_272)" stroke-opacity="0.5" stroke-width="0.263998"/>
</g>
<g filter="url(#filter1_bd_1_272)">
<path d="M53.4375 55H6.5625C5.7 55 5 54.3 5 53.4375C5 52.575 5.7 51.875 6.5625 51.875H53.4375C54.3 51.875 55 52.575 55 53.4375C55 54.3 54.3 55 53.4375 55Z" fill="url(#paint4_linear_1_272)"/>
<path d="M53.4375 54.868H6.5625C5.7729 54.868 5.132 54.2271 5.132 53.4375C5.132 52.6479 5.7729 52.007 6.5625 52.007H53.4375C54.2271 52.007 54.868 52.6479 54.868 53.4375C54.868 54.2271 54.2271 54.868 53.4375 54.868Z" stroke="url(#paint5_linear_1_272)" stroke-opacity="0.5" stroke-width="0.263998"/>
</g>
<path d="M11.25 16.4582C10.3875 16.4582 9.6875 15.7582 9.6875 14.8957V13.3332C9.6875 10.1728 12.2563 7.604 15.4167 7.604H18.5417C19.4042 7.604 20.1042 8.304 20.1042 9.1665C20.1042 10.029 19.4042 10.729 18.5417 10.729H15.4167C13.9813 10.729 12.8125 11.8957 12.8125 13.3332V14.8957C12.8125 15.7582 12.1125 16.4582 11.25 16.4582Z" fill="url(#paint6_linear_1_272)"/>
<path d="M48.75 16.4582C47.8875 16.4582 47.1875 15.7582 47.1875 14.8957V13.3332C47.1875 11.8978 46.0187 10.729 44.5833 10.729H41.4583C40.5958 10.729 39.8958 10.029 39.8958 9.1665C39.8958 8.304 40.5958 7.604 41.4583 7.604H44.5833C47.7437 7.604 50.3125 10.1728 50.3125 13.3332V14.8957C50.3125 15.7582 49.6125 16.4582 48.75 16.4582Z" fill="url(#paint7_linear_1_272)"/>
<g filter="url(#filter2_bd_1_272)">
<g filter="url(#filter3_di_1_272)">
<path d="M31.5625 24.2708C31.5625 25.1333 30.8625 25.8333 30 25.8333C29.1375 25.8333 28.4375 25.1333 28.4375 24.2708C28.4375 23.4083 29.1375 22.7083 30 22.7083C30.8625 22.7083 31.5625 23.4083 31.5625 24.2708Z" fill="url(#paint8_radial_1_272)"/>
</g>
<g filter="url(#filter4_di_1_272)">
<path d="M31.5625 41.979C31.5625 42.8415 30.8625 43.5415 30 43.5415C29.1375 43.5415 28.4375 42.8415 28.4375 41.979C28.4375 41.1165 29.1375 40.4165 30 40.4165C30.8625 40.4165 31.5625 41.1165 31.5625 41.979Z" fill="url(#paint9_radial_1_272)"/>
</g>
<g filter="url(#filter5_di_1_272)">
<path d="M38.8542 34.6875C39.7172 34.6875 40.4167 33.9879 40.4167 33.125C40.4167 32.262 39.7172 31.5625 38.8542 31.5625C37.9913 31.5625 37.2917 32.262 37.2917 33.125C37.2917 33.9879 37.9913 34.6875 38.8542 34.6875Z" fill="url(#paint10_radial_1_272)"/>
</g>
<g filter="url(#filter6_di_1_272)">
<path d="M21.1459 34.6875C20.2834 34.6875 19.5834 33.9875 19.5834 33.125C19.5834 32.2625 20.2834 31.5625 21.1459 31.5625C22.0084 31.5625 22.7084 32.2625 22.7084 33.125C22.7084 33.9875 22.0084 34.6875 21.1459 34.6875Z" fill="url(#paint11_radial_1_272)"/>
</g>
<g filter="url(#filter7_di_1_272)">
<path d="M37.3605 27.9702C37.9707 27.36 37.9707 26.3707 37.3605 25.7605C36.7503 25.1503 35.7609 25.1503 35.1507 25.7605C34.5405 26.3707 34.5405 27.36 35.1507 27.9702C35.7609 28.5804 36.7503 28.5804 37.3605 27.9702Z" fill="url(#paint12_radial_1_272)"/>
</g>
<g filter="url(#filter8_di_1_272)">
<path d="M24.8438 40.4916C24.2333 41.102 23.2438 41.102 22.6333 40.4916C22.0229 39.8811 22.0229 38.8916 22.6333 38.2811C23.2438 37.6707 24.2333 37.6707 24.8438 38.2811C25.4542 38.8916 25.4542 39.8811 24.8438 40.4916Z" fill="url(#paint13_radial_1_272)"/>
</g>
<g filter="url(#filter9_di_1_272)">
<path d="M37.3585 40.4891C37.9687 39.8789 37.9687 38.8896 37.3585 38.2794C36.7483 37.6692 35.759 37.6692 35.1488 38.2794C34.5386 38.8896 34.5386 39.8789 35.1488 40.4891C35.759 41.0993 36.7483 41.0993 37.3585 40.4891Z" fill="url(#paint14_radial_1_272)"/>
</g>
<g filter="url(#filter10_di_1_272)">
<path d="M22.6354 27.9687C22.025 27.3604 22.025 26.3687 22.6354 25.7583C23.2458 25.1479 24.2354 25.1479 24.8458 25.7583C25.4563 26.3687 25.4563 27.3583 24.8458 27.9687C24.2333 28.5791 23.2458 28.5791 22.6354 27.9687Z" fill="url(#paint15_radial_1_272)"/>
</g>
</g>
<g filter="url(#filter11_bd_1_272)">
<path d="M39.0792 5H20.9208C19.0333 5 17.5 6.53542 17.5 8.42083V9.9125C17.5 11.7979 19.0333 13.3333 20.9208 13.3333H39.0812C40.9667 13.3333 42.5 11.7979 42.5 9.9125V8.42083C42.5 6.53542 40.9667 5 39.0792 5V5Z" fill="url(#paint16_linear_1_272)"/>
<path d="M20.9208 5.132H39.0792C40.8937 5.132 42.368 6.60827 42.368 8.42083V9.9125C42.368 11.7251 40.8937 13.2013 39.0812 13.2013H20.9208C19.1063 13.2013 17.632 11.7251 17.632 9.9125V8.42083C17.632 6.60827 19.1063 5.132 20.9208 5.132Z" stroke="url(#paint17_linear_1_272)" stroke-opacity="0.5" stroke-width="0.263998"/>
</g>
<g filter="url(#filter12_bd_1_272)">
<path d="M11.7708 13.3333H10.7292C7.56875 13.3333 5 15.902 5 19.0624V20.1041C5 20.9666 5.7 21.6666 6.5625 21.6666H15.9375C16.8 21.6666 17.5 20.9666 17.5 20.1041V19.0624C17.5 15.902 14.9312 13.3333 11.7708 13.3333Z" fill="url(#paint18_linear_1_272)"/>
<path d="M10.7292 13.4653H11.7708C14.8583 13.4653 17.368 15.9749 17.368 19.0624V20.1041C17.368 20.8937 16.7271 21.5346 15.9375 21.5346H6.5625C5.7729 21.5346 5.132 20.8937 5.132 20.1041V19.0624C5.132 15.9749 7.64165 13.4653 10.7292 13.4653Z" stroke="url(#paint19_linear_1_272)" stroke-opacity="0.5" stroke-width="0.263998"/>
</g>
<g filter="url(#filter13_bd_1_272)">
<path d="M49.2708 13.3333H48.2292C45.0687 13.3333 42.5 15.902 42.5 19.0624V20.1041C42.5 20.9666 43.2 21.6666 44.0625 21.6666H53.4375C54.3 21.6666 55 20.9666 55 20.1041V19.0624C55 15.902 52.4312 13.3333 49.2708 13.3333Z" fill="url(#paint20_linear_1_272)"/>
<path d="M48.2292 13.4653H49.2708C52.3583 13.4653 54.868 15.9749 54.868 19.0624V20.1041C54.868 20.8937 54.2271 21.5346 53.4375 21.5346H44.0625C43.2729 21.5346 42.632 20.8937 42.632 20.1041V19.0624C42.632 15.9749 45.1417 13.4653 48.2292 13.4653Z" stroke="url(#paint21_linear_1_272)" stroke-opacity="0.5" stroke-width="0.263998"/>
</g>
<defs>
<filter id="filter0_bd_1_272" x="-5.42484" y="-2.29984" width="70.8497" height="70.8497" filterUnits="userSpaceOnUse" color-interpolation-filters="sRGB">
<feFlood flood-opacity="0" result="BackgroundImageFix"/>
<feGaussianBlur in="BackgroundImageFix" stdDeviation="9.89992"/>
<feComposite in2="SourceAlpha" operator="in" result="effect1_backgroundBlur_1_272"/>
<feColorMatrix in="SourceAlpha" type="matrix" values="0 0 0 0 0 0 0 0 0 0 0 0 0 0 0 0 0 0 127 0" result="hardAlpha"/>
<feOffset dx="5" dy="5"/>
<feGaussianBlur stdDeviation="5"/>
<feColorMatrix type="matrix" values="0 0 0 0 0.978727 0 0 0 0 0.978727 0 0 0 0 0.978727 0 0 0 0.21 0"/>
<feBlend mode="normal" in2="effect1_backgroundBlur_1_272" result="effect2_dropShadow_1_272"/>
<feBlend mode="normal" in="SourceGraphic" in2="effect2_dropShadow_1_272" result="shape"/>
</filter>
<filter id="filter1_bd_1_272" x="-14.7998" y="32.0752" width="89.5997" height="42.7247" filterUnits="userSpaceOnUse" color-interpolation-filters="sRGB">
<feFlood flood-opacity="0" result="BackgroundImageFix"/>
<feGaussianBlur in="BackgroundImageFix" stdDeviation="9.89992"/>
<feComposite in2="SourceAlpha" operator="in" result="effect1_backgroundBlur_1_272"/>
<feColorMatrix in="SourceAlpha" type="matrix" values="0 0 0 0 0 0 0 0 0 0 0 0 0 0 0 0 0 0 127 0" result="hardAlpha"/>
<feOffset dx="5" dy="5"/>
<feGaussianBlur stdDeviation="5"/>
<feColorMatrix type="matrix" values="0 0 0 0 0.978727 0 0 0 0 0.978727 0 0 0 0 0.978727 0 0 0 0.21 0"/>
<feBlend mode="normal" in2="effect1_backgroundBlur_1_272" result="effect2_dropShadow_1_272"/>
<feBlend mode="normal" in="SourceGraphic" in2="effect2_dropShadow_1_272" result="shape"/>
</filter>
<filter id="filter2_bd_1_272" x="-0.216471" y="2.90841" width="60.433" height="60.433" filterUnits="userSpaceOnUse" color-interpolation-filters="sRGB">
<feFlood flood-opacity="0" result="BackgroundImageFix"/>
<feGaussianBlur in="BackgroundImageFix" stdDeviation="9.89992"/>
<feComposite in2="SourceAlpha" operator="in" result="effect1_backgroundBlur_1_272"/>
<feColorMatrix in="SourceAlpha" type="matrix" values="0 0 0 0 0 0 0 0 0 0 0 0 0 0 0 0 0 0 127 0" result="hardAlpha"/>
<feOffset dx="5" dy="5"/>
<feGaussianBlur stdDeviation="5"/>
<feColorMatrix type="matrix" values="0 0 0 0 0.978727 0 0 0 0 0.978727 0 0 0 0 0.978727 0 0 0 0.21 0"/>
<feBlend mode="normal" in2="effect1_backgroundBlur_1_272" result="effect2_dropShadow_1_272"/>
<feBlend mode="normal" in="SourceGraphic" in2="effect2_dropShadow_1_272" result="shape"/>
</filter>
<filter id="filter3_di_1_272" x="18.4375" y="0.708252" width="35.125" height="35.125" filterUnits="userSpaceOnUse" color-interpolation-filters="sRGB">
<feFlood flood-opacity="0" result="BackgroundImageFix"/>
<feColorMatrix in="SourceAlpha" type="matrix" values="0 0 0 0 0 0 0 0 0 0 0 0 0 0 0 0 0 0 127 0" result="hardAlpha"/>
<feOffset dx="6" dy="-6"/>
<feGaussianBlur stdDeviation="8"/>
<feColorMatrix type="matrix" values="0 0 0 0 1 0 0 0 0 0.670588 0 0 0 0 0.282353 0 0 0 0.2 0"/>
<feBlend mode="normal" in2="BackgroundImageFix" result="effect1_dropShadow_1_272"/>
<feBlend mode="normal" in="SourceGraphic" in2="effect1_dropShadow_1_272" result="shape"/>
<feColorMatrix in="SourceAlpha" type="matrix" values="0 0 0 0 0 0 0 0 0 0 0 0 0 0 0 0 0 0 127 0" result="hardAlpha"/>
<feOffset dx="-10" dy="10"/>
<feGaussianBlur stdDeviation="10"/>
<feComposite in2="hardAlpha" operator="arithmetic" k2="-1" k3="1"/>
<feColorMatrix type="matrix" values="0 0 0 0 1 0 0 0 0 1 0 0 0 0 1 0 0 0 0.24 0"/>
<feBlend mode="normal" in2="shape" result="effect2_innerShadow_1_272"/>
</filter>
<filter id="filter4_di_1_272" x="18.4375" y="18.4165" width="35.125" height="35.125" filterUnits="userSpaceOnUse" color-interpolation-filters="sRGB">
<feFlood flood-opacity="0" result="BackgroundImageFix"/>
<feColorMatrix in="SourceAlpha" type="matrix" values="0 0 0 0 0 0 0 0 0 0 0 0 0 0 0 0 0 0 127 0" result="hardAlpha"/>
<feOffset dx="6" dy="-6"/>
<feGaussianBlur stdDeviation="8"/>
<feColorMatrix type="matrix" values="0 0 0 0 1 0 0 0 0 0.670588 0 0 0 0 0.282353 0 0 0 0.2 0"/>
<feBlend mode="normal" in2="BackgroundImageFix" result="effect1_dropShadow_1_272"/>
<feBlend mode="normal" in="SourceGraphic" in2="effect1_dropShadow_1_272" result="shape"/>
<feColorMatrix in="SourceAlpha" type="matrix" values="0 0 0 0 0 0 0 0 0 0 0 0 0 0 0 0 0 0 127 0" result="hardAlpha"/>
<feOffset dx="-10" dy="10"/>
<feGaussianBlur stdDeviation="10"/>
<feComposite in2="hardAlpha" operator="arithmetic" k2="-1" k3="1"/>
<feColorMatrix type="matrix" values="0 0 0 0 1 0 0 0 0 1 0 0 0 0 1 0 0 0 0.24 0"/>
<feBlend mode="normal" in2="shape" result="effect2_innerShadow_1_272"/>
</filter>
<filter id="filter5_di_1_272" x="27.2917" y="9.56245" width="35.125" height="35.125" filterUnits="userSpaceOnUse" color-interpolation-filters="sRGB">
<feFlood flood-opacity="0" result="BackgroundImageFix"/>
<feColorMatrix in="SourceAlpha" type="matrix" values="0 0 0 0 0 0 0 0 0 0 0 0 0 0 0 0 0 0 127 0" result="hardAlpha"/>
<feOffset dx="6" dy="-6"/>
<feGaussianBlur stdDeviation="8"/>
<feColorMatrix type="matrix" values="0 0 0 0 1 0 0 0 0 0.670588 0 0 0 0 0.282353 0 0 0 0.2 0"/>
<feBlend mode="normal" in2="BackgroundImageFix" result="effect1_dropShadow_1_272"/>
<feBlend mode="normal" in="SourceGraphic" in2="effect1_dropShadow_1_272" result="shape"/>
<feColorMatrix in="SourceAlpha" type="matrix" values="0 0 0 0 0 0 0 0 0 0 0 0 0 0 0 0 0 0 127 0" result="hardAlpha"/>
<feOffset dx="-10" dy="10"/>
<feGaussianBlur stdDeviation="10"/>
<feComposite in2="hardAlpha" operator="arithmetic" k2="-1" k3="1"/>
<feColorMatrix type="matrix" values="0 0 0 0 1 0 0 0 0 1 0 0 0 0 1 0 0 0 0.24 0"/>
<feBlend mode="normal" in2="shape" result="effect2_innerShadow_1_272"/>
</filter>
<filter id="filter6_di_1_272" x="9.58337" y="9.56245" width="35.125" height="35.125" filterUnits="userSpaceOnUse" color-interpolation-filters="sRGB">
<feFlood flood-opacity="0" result="BackgroundImageFix"/>
<feColorMatrix in="SourceAlpha" type="matrix" values="0 0 0 0 0 0 0 0 0 0 0 0 0 0 0 0 0 0 127 0" result="hardAlpha"/>
<feOffset dx="6" dy="-6"/>
<feGaussianBlur stdDeviation="8"/>
<feColorMatrix type="matrix" values="0 0 0 0 1 0 0 0 0 0.670588 0 0 0 0 0.282353 0 0 0 0.2 0"/>
<feBlend mode="normal" in2="BackgroundImageFix" result="effect1_dropShadow_1_272"/>
<feBlend mode="normal" in="SourceGraphic" in2="effect1_dropShadow_1_272" result="shape"/>
<feColorMatrix in="SourceAlpha" type="matrix" values="0 0 0 0 0 0 0 0 0 0 0 0 0 0 0 0 0 0 127 0" result="hardAlpha"/>
<feOffset dx="-10" dy="10"/>
<feGaussianBlur stdDeviation="10"/>
<feComposite in2="hardAlpha" operator="arithmetic" k2="-1" k3="1"/>
<feColorMatrix type="matrix" values="0 0 0 0 1 0 0 0 0 1 0 0 0 0 1 0 0 0 0.24 0"/>
<feBlend mode="normal" in2="shape" result="effect2_innerShadow_1_272"/>
</filter>
<filter id="filter7_di_1_272" x="24.6931" y="3.30287" width="35.125" height="35.125" filterUnits="userSpaceOnUse" color-interpolation-filters="sRGB">
<feFlood flood-opacity="0" result="BackgroundImageFix"/>
<feColorMatrix in="SourceAlpha" type="matrix" values="0 0 0 0 0 0 0 0 0 0 0 0 0 0 0 0 0 0 127 0" result="hardAlpha"/>
<feOffset dx="6" dy="-6"/>
<feGaussianBlur stdDeviation="8"/>
<feColorMatrix type="matrix" values="0 0 0 0 1 0 0 0 0 0.670588 0 0 0 0 0.282353 0 0 0 0.2 0"/>
<feBlend mode="normal" in2="BackgroundImageFix" result="effect1_dropShadow_1_272"/>
<feBlend mode="normal" in="SourceGraphic" in2="effect1_dropShadow_1_272" result="shape"/>
<feColorMatrix in="SourceAlpha" type="matrix" values="0 0 0 0 0 0 0 0 0 0 0 0 0 0 0 0 0 0 127 0" result="hardAlpha"/>
<feOffset dx="-10" dy="10"/>
<feGaussianBlur stdDeviation="10"/>
<feComposite in2="hardAlpha" operator="arithmetic" k2="-1" k3="1"/>
<feColorMatrix type="matrix" values="0 0 0 0 1 0 0 0 0 1 0 0 0 0 1 0 0 0 0.24 0"/>
<feBlend mode="normal" in2="shape" result="effect2_innerShadow_1_272"/>
</filter>
<filter id="filter8_di_1_272" x="12.1755" y="15.8233" width="35.126" height="35.126" filterUnits="userSpaceOnUse" color-interpolation-filters="sRGB">
<feFlood flood-opacity="0" result="BackgroundImageFix"/>
<feColorMatrix in="SourceAlpha" type="matrix" values="0 0 0 0 0 0 0 0 0 0 0 0 0 0 0 0 0 0 127 0" result="hardAlpha"/>
<feOffset dx="6" dy="-6"/>
<feGaussianBlur stdDeviation="8"/>
<feColorMatrix type="matrix" values="0 0 0 0 1 0 0 0 0 0.670588 0 0 0 0 0.282353 0 0 0 0.2 0"/>
<feBlend mode="normal" in2="BackgroundImageFix" result="effect1_dropShadow_1_272"/>
<feBlend mode="normal" in="SourceGraphic" in2="effect1_dropShadow_1_272" result="shape"/>
<feColorMatrix in="SourceAlpha" type="matrix" values="0 0 0 0 0 0 0 0 0 0 0 0 0 0 0 0 0 0 127 0" result="hardAlpha"/>
<feOffset dx="-10" dy="10"/>
<feGaussianBlur stdDeviation="10"/>
<feComposite in2="hardAlpha" operator="arithmetic" k2="-1" k3="1"/>
<feColorMatrix type="matrix" values="0 0 0 0 1 0 0 0 0 1 0 0 0 0 1 0 0 0 0.24 0"/>
<feBlend mode="normal" in2="shape" result="effect2_innerShadow_1_272"/>
</filter>
<filter id="filter9_di_1_272" x="24.6911" y="15.8217" width="35.125" height="35.125" filterUnits="userSpaceOnUse" color-interpolation-filters="sRGB">
<feFlood flood-opacity="0" result="BackgroundImageFix"/>
<feColorMatrix in="SourceAlpha" type="matrix" values="0 0 0 0 0 0 0 0 0 0 0 0 0 0 0 0 0 0 127 0" result="hardAlpha"/>
<feOffset dx="6" dy="-6"/>
<feGaussianBlur stdDeviation="8"/>
<feColorMatrix type="matrix" values="0 0 0 0 1 0 0 0 0 0.670588 0 0 0 0 0.282353 0 0 0 0.2 0"/>
<feBlend mode="normal" in2="BackgroundImageFix" result="effect1_dropShadow_1_272"/>
<feBlend mode="normal" in="SourceGraphic" in2="effect1_dropShadow_1_272" result="shape"/>
<feColorMatrix in="SourceAlpha" type="matrix" values="0 0 0 0 0 0 0 0 0 0 0 0 0 0 0 0 0 0 127 0" result="hardAlpha"/>
<feOffset dx="-10" dy="10"/>
<feGaussianBlur stdDeviation="10"/>
<feComposite in2="hardAlpha" operator="arithmetic" k2="-1" k3="1"/>
<feColorMatrix type="matrix" values="0 0 0 0 1 0 0 0 0 1 0 0 0 0 1 0 0 0 0.24 0"/>
<feBlend mode="normal" in2="shape" result="effect2_innerShadow_1_272"/>
</filter>
<filter id="filter10_di_1_272" x="12.1776" y="3.30048" width="35.126" height="35.126" filterUnits="userSpaceOnUse" color-interpolation-filters="sRGB">
<feFlood flood-opacity="0" result="BackgroundImageFix"/>
<feColorMatrix in="SourceAlpha" type="matrix" values="0 0 0 0 0 0 0 0 0 0 0 0 0 0 0 0 0 0 127 0" result="hardAlpha"/>
<feOffset dx="6" dy="-6"/>
<feGaussianBlur stdDeviation="8"/>
<feColorMatrix type="matrix" values="0 0 0 0 1 0 0 0 0 0.670588 0 0 0 0 0.282353 0 0 0 0.2 0"/>
<feBlend mode="normal" in2="BackgroundImageFix" result="effect1_dropShadow_1_272"/>
<feBlend mode="normal" in="SourceGraphic" in2="effect1_dropShadow_1_272" result="shape"/>
<feColorMatrix in="SourceAlpha" type="matrix" values="0 0 0 0 0 0 0 0 0 0 0 0 0 0 0 0 0 0 127 0" result="hardAlpha"/>
<feOffset dx="-10" dy="10"/>
<feGaussianBlur stdDeviation="10"/>
<feComposite in2="hardAlpha" operator="arithmetic" k2="-1" k3="1"/>
<feColorMatrix type="matrix" values="0 0 0 0 1 0 0 0 0 1 0 0 0 0 1 0 0 0 0.24 0"/>
<feBlend mode="normal" in2="shape" result="effect2_innerShadow_1_272"/>
</filter>
<filter id="filter11_bd_1_272" x="-2.29984" y="-14.7998" width="64.5997" height="47.933" filterUnits="userSpaceOnUse" color-interpolation-filters="sRGB">
<feFlood flood-opacity="0" result="BackgroundImageFix"/>
<feGaussianBlur in="BackgroundImageFix" stdDeviation="9.89992"/>
<feComposite in2="SourceAlpha" operator="in" result="effect1_backgroundBlur_1_272"/>
<feColorMatrix in="SourceAlpha" type="matrix" values="0 0 0 0 0 0 0 0 0 0 0 0 0 0 0 0 0 0 127 0" result="hardAlpha"/>
<feOffset dx="5" dy="5"/>
<feGaussianBlur stdDeviation="5"/>
<feColorMatrix type="matrix" values="0 0 0 0 0.978727 0 0 0 0 0.978727 0 0 0 0 0.978727 0 0 0 0.21 0"/>
<feBlend mode="normal" in2="effect1_backgroundBlur_1_272" result="effect2_dropShadow_1_272"/>
<feBlend mode="normal" in="SourceGraphic" in2="effect2_dropShadow_1_272" result="shape"/>
</filter>
<filter id="filter12_bd_1_272" x="-14.7998" y="-6.46659" width="52.0997" height="47.933" filterUnits="userSpaceOnUse" color-interpolation-filters="sRGB">
<feFlood flood-opacity="0" result="BackgroundImageFix"/>
<feGaussianBlur in="BackgroundImageFix" stdDeviation="9.89992"/>
<feComposite in2="SourceAlpha" operator="in" result="effect1_backgroundBlur_1_272"/>
<feColorMatrix in="SourceAlpha" type="matrix" values="0 0 0 0 0 0 0 0 0 0 0 0 0 0 0 0 0 0 127 0" result="hardAlpha"/>
<feOffset dx="5" dy="5"/>
<feGaussianBlur stdDeviation="5"/>
<feColorMatrix type="matrix" values="0 0 0 0 0.978727 0 0 0 0 0.978727 0 0 0 0 0.978727 0 0 0 0.21 0"/>
<feBlend mode="normal" in2="effect1_backgroundBlur_1_272" result="effect2_dropShadow_1_272"/>
<feBlend mode="normal" in="SourceGraphic" in2="effect2_dropShadow_1_272" result="shape"/>
</filter>
<filter id="filter13_bd_1_272" x="22.7002" y="-6.46659" width="52.0997" height="47.933" filterUnits="userSpaceOnUse" color-interpolation-filters="sRGB">
<feFlood flood-opacity="0" result="BackgroundImageFix"/>
<feGaussianBlur in="BackgroundImageFix" stdDeviation="9.89992"/>
<feComposite in2="SourceAlpha" operator="in" result="effect1_backgroundBlur_1_272"/>
<feColorMatrix in="SourceAlpha" type="matrix" values="0 0 0 0 0 0 0 0 0 0 0 0 0 0 0 0 0 0 127 0" result="hardAlpha"/>
<feOffset dx="5" dy="5"/>
<feGaussianBlur stdDeviation="5"/>
<feColorMatrix type="matrix" values="0 0 0 0 0.978727 0 0 0 0 0.978727 0 0 0 0 0.978727 0 0 0 0.21 0"/>
<feBlend mode="normal" in2="effect1_backgroundBlur_1_272" result="effect2_dropShadow_1_272"/>
<feBlend mode="normal" in="SourceGraphic" in2="effect2_dropShadow_1_272" result="shape"/>
</filter>
<linearGradient id="paint0_linear_1_272" x1="31.7063" y1="13.7956" x2="24.948" y2="13.4126" gradientUnits="userSpaceOnUse">
<stop stop-color="#BBD2C5"/>
<stop offset="1" stop-color="#536976"/>
</linearGradient>
<linearGradient id="paint1_linear_1_272" x1="37.773" y1="42.2706" x2="7.38378" y2="38.3827" gradientUnits="userSpaceOnUse">
<stop stop-color="#BBD2C5"/>
<stop offset="1" stop-color="#536976"/>
</linearGradient>
<linearGradient id="paint2_linear_1_272" x1="43.4094" y1="23.1431" x2="4.4673" y2="17.7585" gradientUnits="userSpaceOnUse">
<stop stop-color="white"/>
<stop offset="0.760063" stop-color="white" stop-opacity="0.61"/>
</linearGradient>
<linearGradient id="paint3_linear_1_272" x1="17.7413" y1="27.9829" x2="45.8049" y2="41.2753" gradientUnits="userSpaceOnUse">
<stop stop-color="white"/>
<stop offset="1" stop-color="white" stop-opacity="0"/>
</linearGradient>
<linearGradient id="paint4_linear_1_272" x1="51.455" y1="52.4393" x2="40.6826" y2="28.6068" gradientUnits="userSpaceOnUse">
<stop stop-color="white"/>
<stop offset="0.760063" stop-color="white" stop-opacity="0.61"/>
</linearGradient>
<linearGradient id="paint5_linear_1_272" x1="10.3861" y1="52.9233" x2="11.3269" y2="60.0533" gradientUnits="userSpaceOnUse">
<stop stop-color="white"/>
<stop offset="1" stop-color="white" stop-opacity="0"/>
</linearGradient>
<linearGradient id="paint6_linear_1_272" x1="16.7917" y1="10.5" x2="9.29169" y2="10" gradientUnits="userSpaceOnUse">
<stop stop-color="#BBD2C5"/>
<stop offset="1" stop-color="#536976"/>
</linearGradient>
<linearGradient id="paint7_linear_1_272" x1="47" y1="10.5" x2="39.5" y2="10" gradientUnits="userSpaceOnUse">
<stop stop-color="#BBD2C5"/>
<stop offset="1" stop-color="#536976"/>
</linearGradient>
<radialGradient id="paint8_radial_1_272" cx="0" cy="0" r="1" gradientUnits="userSpaceOnUse" gradientTransform="translate(29.1587 22.4679) rotate(63.4349) scale(2.15007)">
<stop stop-color="#F5E1C3"/>
<stop offset="1" stop-color="#D9AA73"/>
</radialGradient>
<radialGradient id="paint9_radial_1_272" cx="0" cy="0" r="1" gradientUnits="userSpaceOnUse" gradientTransform="translate(29.1587 40.1762) rotate(63.4349) scale(2.15007)">
<stop stop-color="#F5E1C3"/>
<stop offset="1" stop-color="#D9AA73"/>
</radialGradient>
<radialGradient id="paint10_radial_1_272" cx="0" cy="0" r="1" gradientUnits="userSpaceOnUse" gradientTransform="translate(38.0129 31.3221) rotate(63.4349) scale(2.15007)">
<stop stop-color="#F5E1C3"/>
<stop offset="1" stop-color="#D9AA73"/>
</radialGradient>
<radialGradient id="paint11_radial_1_272" cx="0" cy="0" r="1" gradientUnits="userSpaceOnUse" gradientTransform="translate(20.3045 31.3221) rotate(63.435) scale(2.15007)">
<stop stop-color="#F5E1C3"/>
<stop offset="1" stop-color="#D9AA73"/>
</radialGradient>
<radialGradient id="paint12_radial_1_272" cx="0" cy="0" r="1" gradientUnits="userSpaceOnUse" gradientTransform="translate(34.3858 26.1855) rotate(18.4349) scale(2.15007)">
<stop stop-color="#F5E1C3"/>
<stop offset="1" stop-color="#D9AA73"/>
</radialGradient>
<radialGradient id="paint13_radial_1_272" cx="0" cy="0" r="1" gradientUnits="userSpaceOnUse" gradientTransform="translate(22.8969 37.5829) rotate(63.4349) scale(2.15078 2.15078)">
<stop stop-color="#F5E1C3"/>
<stop offset="1" stop-color="#D9AA73"/>
</radialGradient>
<radialGradient id="paint14_radial_1_272" cx="0" cy="0" r="1" gradientUnits="userSpaceOnUse" gradientTransform="translate(34.3839 38.7043) rotate(18.4349) scale(2.15006 2.15006)">
<stop stop-color="#F5E1C3"/>
<stop offset="1" stop-color="#D9AA73"/>
</radialGradient>
<radialGradient id="paint15_radial_1_272" cx="0" cy="0" r="1" gradientUnits="userSpaceOnUse" gradientTransform="translate(22.899 25.06) rotate(63.435) scale(2.15078)">
<stop stop-color="#F5E1C3"/>
<stop offset="1" stop-color="#D9AA73"/>
</radialGradient>
<linearGradient id="paint16_linear_1_272" x1="40.7275" y1="6.50483" x2="13.6394" y2="-4.73181" gradientUnits="userSpaceOnUse">
<stop stop-color="white"/>
<stop offset="0.760063" stop-color="white" stop-opacity="0.61"/>
</linearGradient>
<linearGradient id="paint17_linear_1_272" x1="20.193" y1="7.79543" x2="29.2975" y2="20.7326" gradientUnits="userSpaceOnUse">
<stop stop-color="white"/>
<stop offset="1" stop-color="white" stop-opacity="0"/>
</linearGradient>
<linearGradient id="paint18_linear_1_272" x1="16.6138" y1="14.8381" x2="1.39384" y2="11.6813" gradientUnits="userSpaceOnUse">
<stop stop-color="white"/>
<stop offset="0.760063" stop-color="white" stop-opacity="0.61"/>
</linearGradient>
<linearGradient id="paint19_linear_1_272" x1="6.34652" y1="16.1287" x2="15.4799" y2="22.6178" gradientUnits="userSpaceOnUse">
<stop stop-color="white"/>
<stop offset="1" stop-color="white" stop-opacity="0"/>
</linearGradient>
<linearGradient id="paint20_linear_1_272" x1="54.1138" y1="14.8381" x2="38.8938" y2="11.6813" gradientUnits="userSpaceOnUse">
<stop stop-color="white"/>
<stop offset="0.760063" stop-color="white" stop-opacity="0.61"/>
</linearGradient>
<linearGradient id="paint21_linear_1_272" x1="43.8465" y1="16.1287" x2="52.9799" y2="22.6178" gradientUnits="userSpaceOnUse">
<stop stop-color="white"/>
<stop offset="1" stop-color="white" stop-opacity="0"/>
</linearGradient>
</defs>
</svg>
